#N canvas 296 539 1143 539 10;
#X obj 105 50 inlet;
#X obj 230 50 inlet;
#X text 224 28 Volume;
#X text 99 29 Volume;
#X floatatom 105 129 5 0 0 0 - - -, f 5;
#X floatatom 230 129 5 0 0 0 - - -, f 5;
#X obj 311 146 +;
#X obj 124 344 pack;
#X obj 167 274 +;
#X obj 230 185 t f f;
#X obj 105 185 t f f;
#X obj 105 292 /;
#X obj 230 292 /;
#X obj 167 229 t b f;
#X obj 124 403 outlet;
#X obj 715 50 inlet;
#X obj 840 50 inlet;
#X text 834 28 Volume;
#X text 709 29 Volume;
#X floatatom 715 129 5 0 0 0 - - -, f 5;
#X floatatom 840 129 5 0 0 0 - - -, f 5;
#X obj 639 146 +;
#X obj 734 344 pack;
#X obj 777 274 +;
#X obj 840 185 t f f;
#X obj 715 185 t f f;
#X obj 715 292 /;
#X obj 840 292 /;
#X obj 777 229 t b f;
#X obj 734 403 outlet;
#X obj 311 185 / 2;
#X obj 639 185 / 2;
#X obj 471 246 +;
#X obj 528 203 t f f;
#X obj 404 203 t f f;
#X obj 404 305 /;
#X obj 528 305 /;
#X obj 455 374 pack;
#X obj 455 433 outlet;
#X connect 0 0 4 0;
#X connect 1 0 5 0;
#X connect 4 0 6 1;
#X connect 4 0 10 0;
#X connect 5 0 6 0;
#X connect 5 0 9 0;
#X connect 6 0 30 0;
#X connect 7 0 14 0;
#X connect 8 0 12 1;
#X connect 8 0 11 1;
#X connect 9 0 12 0;
#X connect 9 1 13 0;
#X connect 10 0 11 0;
#X connect 10 1 8 0;
#X connect 11 0 7 0;
#X connect 12 0 7 1;
#X connect 13 0 8 0;
#X connect 13 1 8 1;
#X connect 15 0 19 0;
#X connect 16 0 20 0;
#X connect 19 0 21 1;
#X connect 19 0 25 0;
#X connect 20 0 21 0;
#X connect 20 0 24 0;
#X connect 21 0 31 0;
#X connect 22 0 29 0;
#X connect 23 0 27 1;
#X connect 23 0 26 1;
#X connect 24 0 27 0;
#X connect 24 1 28 0;
#X connect 25 0 26 0;
#X connect 25 1 23 0;
#X connect 26 0 22 0;
#X connect 27 0 22 1;
#X connect 28 0 23 0;
#X connect 28 1 23 1;
#X connect 30 0 34 0;
#X connect 31 0 33 0;
#X connect 32 0 36 1;
#X connect 32 0 35 1;
#X connect 33 0 36 0;
#X connect 33 1 32 1;
#X connect 34 0 35 0;
#X connect 34 1 32 0;
#X connect 35 0 37 0;
#X connect 36 0 37 1;
#X connect 37 0 38 0;
