#N canvas 89 247 1449 713 10;
#X obj 320 29 inlet;
#X text 314 7 Volume;
#X floatatom 105 367 5 0 0 0 - - -, f 5;
#X floatatom 320 367 5 0 0 0 - - -, f 5;
#X obj 124 554 pack;
#X obj 207 484 +;
#X obj 320 395 t f f;
#X obj 105 395 t f f;
#X obj 105 502 /;
#X obj 320 502 /;
#X obj 124 613 outlet;
#X floatatom 965 307 5 0 0 0 - - -, f 5;
#X floatatom 1180 359 5 0 0 0 - - -, f 5;
#X obj 879 376 +;
#X obj 984 544 pack;
#X obj 1067 474 +;
#X obj 1180 385 t f f;
#X obj 965 385 t f f;
#X obj 965 492 /;
#X obj 1180 492 /;
#X obj 984 603 outlet;
#X obj 421 458 / 2;
#X obj 879 458 / 2;
#X obj 641 494 +;
#X obj 698 476 t f f;
#X obj 574 476 t f f;
#X obj 574 553 /;
#X obj 698 553 /;
#X obj 631 624 pack;
#X obj 631 663 outlet;
#X obj 105 29 inlet;
#X text 99 7 Volume;
#X obj 1180 29 inlet;
#X text 1174 7 Volume;
#X obj 965 29 inlet;
#X text 959 7 Volume;
#X obj 421 384 +;
#X obj 516 106 r milisecs_0;
#X obj 613 106 r milisecs_1;
#X obj 710 106 r milisecs_2;
#X obj 807 106 r milisecs_3;
#X floatatom 516 177 5 0 0 0 - - -, f 5;
#X obj 516 234 t b f;
#X obj 516 263 del;
#X obj 516 292 bng 15 250 50 0 empty empty empty 17 7 0 10 -262144
-1 -1;
#X obj 516 205 - 1000;
#X floatatom 613 177 5 0 0 0 - - -, f 5;
#X obj 613 234 t b f;
#X obj 613 263 del;
#X obj 613 292 bng 15 250 50 0 empty empty empty 17 7 0 10 -262144
-1 -1;
#X obj 613 205 - 1000;
#X floatatom 710 177 5 0 0 0 - - -, f 5;
#X obj 710 234 t b f;
#X obj 710 263 del;
#X obj 710 292 bng 15 250 50 0 empty empty empty 17 7 0 10 -262144
-1 -1;
#X obj 710 205 - 1000;
#X floatatom 807 177 5 0 0 0 - - -, f 5;
#X obj 807 234 t b f;
#X obj 807 263 del;
#X obj 807 292 bng 15 250 50 0 empty empty empty 17 7 0 10 -262144
-1 -1;
#X obj 807 205 - 1000;
#X obj 127 307 s trigger_1;
#X obj 470 339 s trigger_2;
#X obj 828 330 s trigger_3;
#X obj 1237 307 s trigger_0;
#X obj 858 187 r crossfade_time;
#X obj 416 355 t b f;
#X obj 965 358 t b f, f 6;
#X obj 843 557 +;
#X obj 842 517 t b f;
#X obj 843 635 s sum_of_all;
#X obj 857 599 expr (1/$f1);
#X connect 0 0 3 0;
#X connect 2 0 7 0;
#X connect 2 0 36 1;
#X connect 3 0 6 0;
#X connect 3 0 66 0;
#X connect 4 0 10 0;
#X connect 5 0 9 1;
#X connect 5 0 8 1;
#X connect 6 0 9 0;
#X connect 6 1 5 1;
#X connect 7 0 8 0;
#X connect 7 1 5 0;
#X connect 8 0 4 0;
#X connect 9 0 4 1;
#X connect 11 0 17 0;
#X connect 11 0 67 0;
#X connect 12 0 13 0;
#X connect 12 0 16 0;
#X connect 13 0 22 0;
#X connect 13 0 69 0;
#X connect 14 0 20 0;
#X connect 15 0 19 1;
#X connect 15 0 18 1;
#X connect 16 0 19 0;
#X connect 16 1 15 1;
#X connect 17 0 18 0;
#X connect 17 1 15 0;
#X connect 18 0 14 0;
#X connect 19 0 14 1;
#X connect 21 0 25 0;
#X connect 22 0 24 0;
#X connect 23 0 27 1;
#X connect 23 0 26 1;
#X connect 24 0 27 0;
#X connect 24 1 23 1;
#X connect 25 0 26 0;
#X connect 25 1 23 0;
#X connect 26 0 28 0;
#X connect 27 0 28 1;
#X connect 28 0 29 0;
#X connect 30 0 2 0;
#X connect 32 0 12 0;
#X connect 34 0 11 0;
#X connect 36 0 21 0;
#X connect 36 0 68 0;
#X connect 37 0 41 0;
#X connect 38 0 46 0;
#X connect 39 0 51 0;
#X connect 40 0 56 0;
#X connect 41 0 45 0;
#X connect 42 0 43 0;
#X connect 42 1 43 1;
#X connect 43 0 44 0;
#X connect 44 0 61 0;
#X connect 45 0 42 0;
#X connect 46 0 50 0;
#X connect 47 0 48 0;
#X connect 47 1 48 1;
#X connect 48 0 49 0;
#X connect 49 0 62 0;
#X connect 50 0 47 0;
#X connect 51 0 55 0;
#X connect 52 0 53 0;
#X connect 52 1 53 1;
#X connect 53 0 54 0;
#X connect 54 0 63 0;
#X connect 55 0 52 0;
#X connect 56 0 60 0;
#X connect 57 0 58 0;
#X connect 57 1 58 1;
#X connect 58 0 59 0;
#X connect 59 0 64 0;
#X connect 60 0 57 0;
#X connect 65 0 45 1;
#X connect 65 0 50 1;
#X connect 65 0 55 1;
#X connect 65 0 60 1;
#X connect 66 0 36 0;
#X connect 66 1 36 1;
#X connect 67 0 13 0;
#X connect 67 1 13 1;
#X connect 68 0 71 0;
#X connect 69 0 68 0;
#X connect 69 1 68 1;
#X connect 71 0 70 0;
