#N canvas 335 81 934 687 10;
#X obj 173 623 readsf~;
#X obj 233 556 * 44100;
#X obj 173 283 textfile;
#X msg 205 255 rewind;
#X msg 270 266 read Labels.txt cr;
#X obj 173 377 unpack f f f;
#X obj 193 438 -;
#X floatatom 193 466 5 0 0 0 - - -, f 5;
#X obj 193 491 abs;
#X obj 193 519 * 1000;
#X msg 275 483 1;
#X obj 173 547 del;
#X obj 173 405 t b f b f;
#X msg 173 575 0;
#X msg 173 349 269.787 277.122 4;
#X msg 173 321 set \$1 \$2 \$3;
#X obj 329 334 bng 15 250 50 0 empty empty empty 17 7 0 10 -262144
-1 -1;
#X obj 173 227 until;
#X obj 173 199 + 1;
#X obj 173 143 t b b;
#X obj 173 117 bng 15 250 50 0 empty empty empty 17 7 0 10 -262144
-1 -1;
#X obj 326 62 inlet;
#X obj 241 62 inlet;
#X obj 166 61 inlet;
#X obj 77 223 spigot;
#X obj 116 172 tgl 15 0 empty empty empty 17 7 0 10 -262144 -1 -1 1
1;
#X text 171 81 Loop;
#X obj 77 260 t b b;
#X text 244 82 Lowest;
#X text 327 82 Highest;
#X obj 26 61 inlet;
#X text 17 83 Trigger;
#X obj 512 250 osc~;
#X obj 491 190 t b b f;
#X msg 512 225 441;
#X msg 491 169 0.5;
#X obj 512 278 +~ 1;
#X obj 512 306 /~ 2;
#X obj 491 143 loadbang;
#X obj 487 639 *~;
#X obj 505 611 tabread4~ hamming-\$0;
#X obj 491 390 tabwrite~ hamming-\$0;
#X obj 580 257 table hamming-\$0;
#X obj 505 588 line~;
#X msg 555 564 0;
#X obj 505 536 t f b;
#X msg 505 564 99 \$1;
#X obj 512 334 sqrt~;
#X obj 512 362 sqrt~;
#X obj 96 61 inlet;
#X text 89 81 Change;
#X obj 537 655 outlet~;
#X msg 233 586 open LabeledSilence.wav \$1;
#X obj 173 171 random 11;
#X floatatom 245 206 5 0 0 0 - - -, f 5;
#X obj 353 224 loadbang;
#X connect 0 0 39 0;
#X connect 1 0 52 0;
#X connect 2 0 15 0;
#X connect 3 0 2 0;
#X connect 4 0 2 0;
#X connect 5 0 12 0;
#X connect 5 1 6 1;
#X connect 6 0 7 0;
#X connect 7 0 8 0;
#X connect 8 0 9 0;
#X connect 9 0 11 1;
#X connect 9 0 45 0;
#X connect 10 0 0 0;
#X connect 11 0 13 0;
#X connect 12 0 11 0;
#X connect 12 1 6 0;
#X connect 12 2 10 0;
#X connect 12 3 1 0;
#X connect 13 0 0 0;
#X connect 13 0 24 0;
#X connect 14 0 5 0;
#X connect 15 0 14 0;
#X connect 16 0 14 0;
#X connect 17 0 2 0;
#X connect 18 0 17 0;
#X connect 18 0 54 0;
#X connect 19 0 53 0;
#X connect 19 1 3 0;
#X connect 20 0 19 0;
#X connect 21 0 53 1;
#X connect 22 0 18 1;
#X connect 23 0 25 0;
#X connect 24 0 27 0;
#X connect 25 0 24 1;
#X connect 27 0 16 0;
#X connect 27 1 20 0;
#X connect 30 0 27 0;
#X connect 32 0 36 0;
#X connect 33 0 41 0;
#X connect 33 1 34 0;
#X connect 33 2 32 1;
#X connect 34 0 32 0;
#X connect 35 0 33 0;
#X connect 36 0 37 0;
#X connect 37 0 47 0;
#X connect 38 0 35 0;
#X connect 39 0 51 0;
#X connect 40 0 39 1;
#X connect 43 0 40 0;
#X connect 44 0 43 0;
#X connect 45 0 46 0;
#X connect 45 1 44 0;
#X connect 46 0 43 0;
#X connect 47 0 48 0;
#X connect 48 0 41 0;
#X connect 49 0 20 0;
#X connect 52 0 0 0;
#X connect 53 0 18 0;
#X connect 55 0 4 0;
