#N canvas 1102 458 450 408 10;
#X obj 96 64 inlet;
#X obj 81 143 >;
#X obj 96 103 t f f;
#X obj 81 182 sel 0 1;
#X obj 238 122 t f f;
#X obj 265 151 - 1;
#X obj 265 180 abs;
#X obj 81 222 f;
#X obj 100 251 f;
#X obj 81 355 outlet;
#X obj 238 61 inlet;
#X obj 81 326 line;
#X msg 81 297 \$1 300;
#X connect 0 0 2 0;
#X connect 1 0 3 0;
#X connect 2 0 1 1;
#X connect 2 1 1 0;
#X connect 3 0 7 0;
#X connect 3 1 8 0;
#X connect 4 0 7 1;
#X connect 4 1 5 0;
#X connect 5 0 6 0;
#X connect 6 0 8 1;
#X connect 7 0 12 0;
#X connect 8 0 12 0;
#X connect 10 0 4 0;
#X connect 11 0 9 0;
#X connect 12 0 11 0;
