#N canvas 313 149 1019 649 10;
#X obj 134 486 readsf~;
#X obj 371 182 * 44100;
#X obj 213 217 -;
#X floatatom 213 245 5 0 0 0 - - -, f 5;
#X obj 213 270 abs;
#X msg 292 221 1;
#X obj 134 316 del;
#X obj 134 116 t b f b f, f 40;
#X msg 134 344 0;
#X obj 756 200 osc~;
#X obj 735 140 t b b f;
#X msg 756 175 441;
#X msg 735 119 0.5;
#X obj 756 256 /~ 2;
#X obj 735 93 loadbang;
#X obj 388 503 *~;
#X obj 404 471 tabread4~ hamming-\$0;
#X obj 735 340 tabwrite~ hamming-\$0;
#X obj 824 207 table hamming-\$0;
#X obj 404 408 line~;
#X msg 535 360 0;
#X obj 484 316 t f b, f 9;
#X msg 484 360 99 \$1;
#X obj 388 593 outlet~;
#X obj 33 367 outlet;
#X text 16 390 get new input;
#X obj 33 334 f \$1;
#X obj 596 408 line;
#X obj 596 471 tabread hamming-\$0;
#X obj 596 593 outlet;
#X obj 755 315 sqrt~;
#X obj 416 45 r soundfilename;
#X obj 371 211 pack f s;
#X obj 134 36 r startpoint-\$1;
#X obj 228 66 r endpoint-\$1;
#X obj 213 298 * 1000;
#X obj 309 396 r volume-\$1;
#X obj 309 512 line~;
#X obj 387 552 *~;
#X obj 756 228 +~ 1;
#X msg 371 240 open \$2 \$1;
#X obj 756 285 sqrt~;
#X msg 309 424 \$1 50;
#X connect 0 0 15 0;
#X connect 1 0 32 0;
#X connect 2 0 3 0;
#X connect 3 0 4 0;
#X connect 4 0 35 0;
#X connect 5 0 0 0;
#X connect 6 0 8 0;
#X connect 6 0 26 0;
#X connect 7 0 6 0;
#X connect 7 1 2 0;
#X connect 7 2 5 0;
#X connect 7 3 1 0;
#X connect 8 0 0 0;
#X connect 9 0 39 0;
#X connect 10 0 17 0;
#X connect 10 1 11 0;
#X connect 10 2 9 1;
#X connect 11 0 9 0;
#X connect 12 0 10 0;
#X connect 13 0 41 0;
#X connect 14 0 12 0;
#X connect 15 0 38 0;
#X connect 16 0 15 1;
#X connect 19 0 16 0;
#X connect 20 0 19 0;
#X connect 20 0 27 0;
#X connect 21 0 22 0;
#X connect 21 1 20 0;
#X connect 22 0 19 0;
#X connect 22 0 27 0;
#X connect 26 0 24 0;
#X connect 27 0 28 0;
#X connect 28 0 29 0;
#X connect 30 0 17 0;
#X connect 31 0 32 1;
#X connect 32 0 40 0;
#X connect 33 0 7 0;
#X connect 34 0 2 1;
#X connect 35 0 6 1;
#X connect 35 0 21 0;
#X connect 36 0 42 0;
#X connect 37 0 38 1;
#X connect 38 0 23 0;
#X connect 39 0 13 0;
#X connect 40 0 0 0;
#X connect 41 0 30 0;
#X connect 42 0 37 0;
