#N canvas 117 365 1019 649 10;
#X obj 134 486 readsf~;
#X obj 371 182 * 44100;
#X obj 213 217 -;
#X obj 213 270 abs;
#X msg 292 221 1;
#X obj 134 316 del;
#X obj 134 116 t b f b f, f 40;
#X obj 756 200 osc~;
#X obj 735 140 t b b f;
#X msg 735 119 0.5;
#X obj 756 256 /~ 2;
#X obj 735 93 loadbang;
#X obj 388 503 *~;
#X obj 404 471 tabread4~ hamming-\$0;
#X obj 735 340 tabwrite~ hamming-\$0;
#X obj 824 207 table hamming-\$0;
#X obj 404 408 line~;
#X msg 535 360 0;
#X obj 484 316 t f b, f 9;
#X msg 484 360 99 \$1;
#X obj 388 593 outlet~;
#X obj 596 408 line;
#X obj 596 471 tabread hamming-\$0;
#X obj 596 593 outlet;
#X obj 371 211 pack f s;
#X obj 213 298 * 1000;
#X obj 756 228 +~ 1;
#X msg 371 240 open \$2 \$1;
#X obj 134 87 f;
#X obj 134 21 inlet;
#X obj 755 283 sqrt~;
#X obj 228 87 inlet;
#X obj 416 87 inlet;
#X obj 149 50 inlet;
#X obj 845 59 r hamming_bang;
#X obj 66 401 s ready_\$1;
#X obj 626 523 s volume_\$1;
#X msg 66 334 1;
#X msg 292 250 0;
#X obj 66 279 loadbang;
#X msg 756 175 442;
#X connect 0 0 12 0;
#X connect 1 0 24 0;
#X connect 2 0 3 0;
#X connect 3 0 25 0;
#X connect 4 0 0 0;
#X connect 5 0 37 0;
#X connect 6 0 5 0;
#X connect 6 1 2 0;
#X connect 6 2 4 0;
#X connect 6 2 38 0;
#X connect 6 3 1 0;
#X connect 7 0 26 0;
#X connect 8 0 14 0;
#X connect 8 1 40 0;
#X connect 8 2 7 1;
#X connect 9 0 8 0;
#X connect 10 0 30 0;
#X connect 11 0 9 0;
#X connect 12 0 20 0;
#X connect 13 0 12 1;
#X connect 16 0 13 0;
#X connect 17 0 16 0;
#X connect 17 0 21 0;
#X connect 18 0 19 0;
#X connect 18 1 17 0;
#X connect 19 0 16 0;
#X connect 19 0 21 0;
#X connect 21 0 22 0;
#X connect 22 0 23 0;
#X connect 22 0 36 0;
#X connect 24 0 27 0;
#X connect 25 0 5 1;
#X connect 25 0 18 0;
#X connect 26 0 10 0;
#X connect 27 0 0 0;
#X connect 28 0 6 0;
#X connect 29 0 28 0;
#X connect 30 0 14 0;
#X connect 31 0 2 1;
#X connect 32 0 24 1;
#X connect 33 0 28 1;
#X connect 34 0 9 0;
#X connect 37 0 35 0;
#X connect 38 0 35 0;
#X connect 39 0 37 0;
#X connect 40 0 7 0;
