#N canvas 422 92 874 649 10;
#X obj 64 41 inlet;
#X obj 64 483 readsf~;
#X obj 124 406 * 44100;
#X obj 84 298 -;
#X floatatom 84 326 5 0 0 0 - - -, f 5;
#X obj 84 351 abs;
#X obj 84 379 * 1000;
#X msg 166 343 1;
#X obj 64 407 del;
#X obj 64 265 t b f b f;
#X msg 64 435 0;
#X obj 593 369 osc~;
#X obj 572 309 t b b f;
#X msg 593 344 441;
#X msg 572 288 0.5;
#X obj 593 397 +~ 1;
#X obj 593 425 /~ 2;
#X obj 572 262 loadbang;
#X obj 378 499 *~;
#X obj 396 471 tabread4~ hamming-\$0;
#X obj 572 509 tabwrite~ hamming-\$0;
#X obj 661 376 table hamming-\$0;
#X obj 396 448 line~;
#X msg 446 424 0;
#X obj 396 396 t f b;
#X msg 396 424 99 \$1;
#X obj 377 559 outlet~;
#X text 64 24 list from textfile;
#X obj 23 561 outlet;
#X text 11 578 get new input;
#X obj 23 528 f \$1;
#X obj 102 77 inlet;
#X obj 446 511 line;
#X obj 446 535 tabread hamming-\$0;
#X obj 446 593 outlet;
#X obj 592 458 sqrt~;
#X obj 592 484 sqrt~;
#X obj 224 339 r soundfilename;
#X msg 124 456 open \$2.wav \$1;
#X obj 124 431 pack f s;
#X obj 135 538 print 2:;
#X obj 208 369 t b a;
#X connect 0 0 9 0;
#X connect 1 0 18 0;
#X connect 2 0 39 0;
#X connect 3 0 4 0;
#X connect 4 0 5 0;
#X connect 5 0 6 0;
#X connect 6 0 8 1;
#X connect 6 0 24 0;
#X connect 7 0 1 0;
#X connect 8 0 10 0;
#X connect 8 0 30 0;
#X connect 9 0 8 0;
#X connect 9 1 3 0;
#X connect 9 2 7 0;
#X connect 9 3 2 0;
#X connect 10 0 1 0;
#X connect 11 0 15 0;
#X connect 12 0 20 0;
#X connect 12 1 13 0;
#X connect 12 2 11 1;
#X connect 13 0 11 0;
#X connect 14 0 12 0;
#X connect 15 0 16 0;
#X connect 16 0 35 0;
#X connect 17 0 14 0;
#X connect 18 0 26 0;
#X connect 19 0 18 1;
#X connect 22 0 19 0;
#X connect 23 0 22 0;
#X connect 23 0 32 0;
#X connect 24 0 25 0;
#X connect 24 1 23 0;
#X connect 25 0 22 0;
#X connect 25 0 32 0;
#X connect 30 0 28 0;
#X connect 31 0 3 1;
#X connect 32 0 33 0;
#X connect 33 0 34 0;
#X connect 35 0 36 0;
#X connect 36 0 20 0;
#X connect 37 0 41 0;
#X connect 38 0 1 0;
#X connect 38 0 40 0;
#X connect 39 0 38 0;
#X connect 41 0 2 0;
#X connect 41 1 39 1;
