#N canvas 43 105 874 649 10;
#X obj 64 41 inlet;
#X obj 64 483 readsf~;
#X obj 124 416 * 44100;
#X obj 64 237 unpack f f f;
#X obj 84 298 -;
#X floatatom 84 326 5 0 0 0 - - -, f 5;
#X obj 84 351 abs;
#X obj 84 379 * 1000;
#X msg 166 343 1;
#X obj 64 407 del;
#X obj 64 265 t b f b f;
#X msg 64 435 0;
#X msg 64 209 0 0 0;
#X msg 64 181 set \$1 \$2 \$3;
#X obj 198 94 bng 15 250 50 0 empty empty empty 17 7 0 10 -262144 -1
-1;
#X obj 593 369 osc~;
#X obj 572 309 t b b f;
#X msg 593 344 441;
#X msg 572 288 0.5;
#X obj 593 397 +~ 1;
#X obj 593 425 /~ 2;
#X obj 572 262 loadbang;
#X obj 378 499 *~;
#X obj 396 471 tabread4~ hamming-\$0;
#X obj 572 509 tabwrite~ hamming-\$0;
#X obj 661 376 table hamming-\$0;
#X obj 396 448 line~;
#X msg 446 424 0;
#X obj 396 396 t f b;
#X msg 396 424 99 \$1;
#X obj 593 453 sqrt~;
#X obj 377 559 outlet~;
#X msg 124 446 open LabeledSilence.wav \$1;
#X text 64 24 list from textfile;
#X obj 187 68 inlet;
#X text 233 66 trigger;
#X obj 23 561 outlet;
#X text 11 578 get new input;
#X obj 23 528 f \$1;
#X connect 0 0 13 0;
#X connect 1 0 22 0;
#X connect 2 0 32 0;
#X connect 3 0 10 0;
#X connect 3 1 4 1;
#X connect 4 0 5 0;
#X connect 5 0 6 0;
#X connect 6 0 7 0;
#X connect 7 0 9 1;
#X connect 7 0 28 0;
#X connect 8 0 1 0;
#X connect 9 0 11 0;
#X connect 9 0 38 0;
#X connect 10 0 9 0;
#X connect 10 1 4 0;
#X connect 10 2 8 0;
#X connect 10 3 2 0;
#X connect 11 0 1 0;
#X connect 12 0 3 0;
#X connect 13 0 12 0;
#X connect 14 0 12 0;
#X connect 15 0 19 0;
#X connect 16 0 24 0;
#X connect 16 1 17 0;
#X connect 16 2 15 1;
#X connect 17 0 15 0;
#X connect 18 0 16 0;
#X connect 19 0 20 0;
#X connect 20 0 30 0;
#X connect 21 0 18 0;
#X connect 22 0 31 0;
#X connect 23 0 22 1;
#X connect 26 0 23 0;
#X connect 27 0 26 0;
#X connect 28 0 29 0;
#X connect 28 1 27 0;
#X connect 29 0 26 0;
#X connect 30 0 24 0;
#X connect 32 0 1 0;
#X connect 34 0 14 0;
#X connect 38 0 36 0;
