#N canvas 81 97 1262 659 10;
#X msg 10 67 0 \, destroy;
#X obj 10 11 Gem;
#X obj 10 123 gemwin;
#X msg 10 39 create \, 1;
#X obj 426 655 rectangle 6 4;
#X obj 426 628 pix_texture;
#X obj 235 548 pix_mix 0;
#X obj 184 446 tgl 15 0 empty empty empty 17 7 0 10 -262144 -1 -1 1
1;
#X obj 487 446 tgl 15 0 empty empty empty 17 7 0 10 -262144 -1 -1 1
1;
#X obj 693 563 pix_mix 0;
#X obj 753 446 tgl 15 0 empty empty empty 17 7 0 10 -262144 -1 -1 1
1;
#X obj 426 600 pix_mix 0;
#X obj 366 65 t f b;
#X obj 564 300 route 0 1 2 3;
#X obj 59 431 tgl 15 0 empty empty empty 17 7 0 10 -262144 -1 -1 1
1;
#X msg 248 134 0;
#X msg 614 219 set \$1;
#X floatatom 564 247 5 0 0 0 - - -, f 5;
#X obj 564 219 t b f;
#X obj 564 272 pack f f f;
#X obj 154 318 unpack f f;
#X obj 128 362 bng 15 250 50 0 empty empty empty 17 7 0 10 -262144
-1 -1;
#X obj 154 373 s getnew;
#X obj 44 387 bng 15 250 50 0 empty empty empty 17 7 0 10 -262144 -1
-1;
#X obj 44 455 openpanel;
#X obj 612 244 textfiler;
#X obj 427 472 VidPlayer;
#X obj 384 318 unpack f f;
#X obj 358 362 bng 15 250 50 0 empty empty empty 17 7 0 10 -262144
-1 -1;
#X obj 384 373 s getnew;
#X obj 211 394 throw~ todac;
#X obj 441 394 throw~ todac;
#X obj 723 318 unpack f f;
#X obj 697 362 bng 15 250 50 0 empty empty empty 17 7 0 10 -262144
-1 -1;
#X obj 723 373 s getnew;
#X obj 780 393 throw~ todac;
#X obj 487 517 loadbang;
#X msg 228 190 1;
#X msg 208 246 2;
#X obj 932 483 catch~ todac;
#X floatatom 833 371 5 0 0 0 - - -, f 5;
#X floatatom 518 362 5 0 0 0 - - -, f 5;
#X floatatom 267 419 5 0 0 0 - - -, f 5;
#X obj 564 136 statfeed;
#X floatatom 590 86 5 0 0 0 - - -, f 5;
#X floatatom 617 111 5 0 0 0 - - -, f 5;
#X obj 473 15 loadbang;
#X msg 564 60 sequence;
#X obj 473 43 t b b b;
#X floatatom 564 176 5 0 0 0 - - -, f 5;
#X obj 398 91 random 1000;
#X obj 398 119 / 1000;
#X obj 366 42 r getnew;
#X msg 10 96 dimen 960 720;
#X text 634 138 Can't take over 100!;
#X msg 519 69 100;
#X msg 496 94 130;
#X obj 723 345 FilmSoundPlayer 2;
#X obj 981 125 s soundfilename;
#X obj 981 15 loadbang;
#X obj 981 43 bng 15 250 50 0 empty empty empty 17 7 0 10 -262144 -1
-1;
#X obj 981 97 s textfilename;
#X obj 384 345 FilmSoundPlayer 1;
#X obj 154 345 FilmSoundPlayer 0;
#X msg 981 69 symbol BergmanSilence;
#X obj 931 615 pix_record;
#X obj 910 337 t a;
#X msg 979 404 file /home/joshua/Desktop/Github_Repos/Silencer/togetherthen.mp4
;
#X obj 933 163 bng 15 250 50 0 empty empty empty 0 -6 0 8 -258699 -1
-1;
#N canvas 43 81 450 300 savepanel 0;
#X obj 114 62 inlet;
#X obj 114 254 outlet;
#X obj 114 199 t b a;
#X obj 114 125 savepanel;
#X msg 114 162 set file \$1;
#X connect 0 0 3 0;
#X connect 2 0 1 0;
#X connect 2 1 1 0;
#X connect 3 0 4 0;
#X connect 4 0 2 0;
#X restore 979 376 pd savepanel;
#X msg 979 231 record \$1;
#X obj 979 173 tgl 15 0 empty empty empty 0 -6 0 8 -262144 -1 -1 1
1;
#X obj 979 445 t a;
#X floatatom 954 643 5 0 0 0 - - -, f 5;
#X obj 124 472 VidPlayer;
#X obj 693 472 VidPlayer;
#X msg 931 305 codeclist;
#X msg 931 277 codec 20;
#X obj 298 500 pack;
#X obj 323 469 t b f;
#X obj 788 500 pack;
#X obj 790 466 t b f;
#X obj 208 78 t b b b b;
#X msg 268 106 1;
#X obj 228 162 del 500;
#X obj 208 218 del 800;
#X obj 208 42 bng 15 250 50 0 empty empty empty 17 7 0 10 -262144 -1
-1;
#X obj 903 210 bng 15 250 50 0 empty empty empty 17 7 0 10 -262144
-1 -1;
#X msg 487 545 0.5 0.5;
#X obj 557 400 * 0.333;
#X obj 281 443 * 0.666;
#X obj 826 438 0.666;
#X obj 1046 573 writesf~;
#X msg 1046 533 start;
#X msg 1069 510 stop;
#X obj 1046 461 tgl 15 0 empty empty empty 17 7 0 10 -262144 -1 -1
0 1;
#X obj 1046 487 sel 1 0;
#X obj 995 202 sel 1 0;
#X msg 1100 543 open soundtrack.wav;
#X connect 0 0 2 0;
#X connect 3 0 2 0;
#X connect 5 0 4 0;
#X connect 5 0 65 0;
#X connect 6 0 11 0;
#X connect 7 0 74 2;
#X connect 8 0 26 2;
#X connect 9 0 11 1;
#X connect 10 0 75 2;
#X connect 11 0 5 0;
#X connect 12 0 16 0;
#X connect 12 1 50 0;
#X connect 13 0 20 0;
#X connect 13 1 27 0;
#X connect 13 2 32 0;
#X connect 14 0 7 0;
#X connect 14 0 8 0;
#X connect 14 0 10 0;
#X connect 15 0 12 0;
#X connect 16 0 17 0;
#X connect 17 0 19 0;
#X connect 18 0 17 0;
#X connect 18 1 25 1;
#X connect 19 0 13 0;
#X connect 20 0 63 0;
#X connect 20 0 74 1;
#X connect 20 1 63 1;
#X connect 23 0 24 0;
#X connect 24 0 74 0;
#X connect 24 0 75 0;
#X connect 25 0 19 1;
#X connect 25 1 19 2;
#X connect 26 0 6 1;
#X connect 26 0 9 1;
#X connect 27 0 26 1;
#X connect 27 0 62 0;
#X connect 27 1 62 1;
#X connect 32 0 57 0;
#X connect 32 0 75 1;
#X connect 32 1 57 1;
#X connect 36 0 88 0;
#X connect 37 0 12 0;
#X connect 38 0 12 0;
#X connect 39 0 92 0;
#X connect 40 0 91 0;
#X connect 41 0 89 0;
#X connect 42 0 90 0;
#X connect 43 0 49 0;
#X connect 44 0 43 1;
#X connect 45 0 43 2;
#X connect 46 0 48 0;
#X connect 47 0 43 0;
#X connect 48 0 47 0;
#X connect 48 1 56 0;
#X connect 48 2 55 0;
#X connect 49 0 18 0;
#X connect 50 0 51 0;
#X connect 51 0 43 0;
#X connect 52 0 12 0;
#X connect 53 0 2 0;
#X connect 55 0 44 0;
#X connect 56 0 45 0;
#X connect 57 0 34 0;
#X connect 57 0 33 0;
#X connect 57 1 35 0;
#X connect 57 2 40 0;
#X connect 59 0 60 0;
#X connect 60 0 64 0;
#X connect 62 0 29 0;
#X connect 62 0 28 0;
#X connect 62 1 31 0;
#X connect 62 2 41 0;
#X connect 63 0 22 0;
#X connect 63 0 21 0;
#X connect 63 1 30 0;
#X connect 63 2 42 0;
#X connect 64 0 61 0;
#X connect 64 0 58 0;
#X connect 65 1 73 0;
#X connect 66 0 65 0;
#X connect 67 0 72 0;
#X connect 68 0 69 0;
#X connect 69 0 67 0;
#X connect 70 0 72 0;
#X connect 71 0 97 0;
#X connect 71 0 70 0;
#X connect 71 0 95 0;
#X connect 72 0 65 0;
#X connect 74 0 6 0;
#X connect 75 0 9 0;
#X connect 76 0 66 0;
#X connect 77 0 66 0;
#X connect 78 0 6 2;
#X connect 79 0 78 0;
#X connect 79 1 78 1;
#X connect 80 0 9 2;
#X connect 81 0 80 0;
#X connect 81 1 80 1;
#X connect 82 0 85 0;
#X connect 82 0 3 0;
#X connect 82 1 84 0;
#X connect 82 2 15 0;
#X connect 82 3 83 0;
#X connect 83 0 14 0;
#X connect 84 0 37 0;
#X connect 85 0 38 0;
#X connect 86 0 82 0;
#X connect 87 0 77 0;
#X connect 88 0 11 2;
#X connect 89 0 79 0;
#X connect 89 0 80 0;
#X connect 90 0 78 0;
#X connect 91 0 81 0;
#X connect 93 0 92 0;
#X connect 94 0 92 0;
#X connect 95 0 96 0;
#X connect 96 0 93 0;
#X connect 96 1 94 0;
#X connect 97 0 86 0;
#X connect 98 0 92 0;
