#N canvas 67 90 1641 908 10;
#X msg 10 67 0 \, destroy;
#X obj 10 11 Gem;
#X obj 10 123 gemwin;
#X msg 10 39 create \, 1;
#X obj 556 635 rectangle 6 4;
#X obj 556 608 pix_texture;
#X floatatom 304 540 5 0 0 0 - - -, f 5;
#X obj 244 563 pix_mix 0;
#X obj 184 446 tgl 15 0 empty empty empty 17 7 0 10 -262144 -1 -1 0
1;
#X obj 414 446 tgl 15 0 empty empty empty 17 7 0 10 -262144 -1 -1 0
1;
#X floatatom 753 540 5 0 0 0 - - -, f 5;
#X obj 693 563 pix_mix 0;
#X obj 753 446 tgl 15 0 empty empty empty 17 7 0 10 -262144 -1 -1 0
1;
#X obj 1016 446 tgl 15 0 empty empty empty 17 7 0 10 -262144 -1 -1
0 1;
#X obj 556 580 pix_mix 0;
#X floatatom 616 545 5 0 0 0 - - -, f 5;
#X obj 826 65 t f b;
#X obj 564 300 route 0 1 2 3;
#X obj 59 431 tgl 15 0 empty empty empty 17 7 0 10 -262144 -1 -1 0
1;
#X msg 664 7 0;
#X msg 614 219 set \$1;
#X floatatom 564 247 5 0 0 0 - - -, f 5;
#X obj 564 219 t b f;
#X obj 564 272 pack f f f;
#X obj 154 318 unpack f f;
#X obj 128 373 bng 15 250 50 0 empty empty empty 17 7 0 10 -262144
-1 -1;
#X obj 154 373 s getnew;
#X obj 44 387 bng 15 250 50 0 empty empty empty 17 7 0 10 -262144 -1
-1;
#X obj 44 455 openpanel;
#X obj 612 244 textfiler;
#X obj 354 472 VidPlayer;
#X obj 384 318 unpack f f;
#X obj 358 373 bng 15 250 50 0 empty empty empty 17 7 0 10 -262144
-1 -1;
#X obj 384 373 s getnew;
#X obj 269 424 throw~ todac;
#X obj 499 424 throw~ todac;
#X obj 723 318 unpack f f;
#X obj 697 373 bng 15 250 50 0 empty empty empty 17 7 0 10 -262144
-1 -1;
#X obj 723 373 s getnew;
#X obj 838 424 throw~ todac;
#X obj 986 318 unpack f f;
#X obj 960 373 bng 15 250 50 0 empty empty empty 17 7 0 10 -262144
-1 -1;
#X obj 986 373 s getnew;
#X obj 1101 424 throw~ todac;
#X obj 482 495 + 1, f 4;
#X obj 482 523 / 2;
#X obj 1054 523 / 2;
#X obj 616 489 loadbang;
#X msg 616 517 0.5;
#X msg 708 7 1;
#X obj 482 467 -;
#X msg 751 7 2;
#X msg 794 7 3;
#X obj 879 568 catch~ todac;
#X obj 880 608 dac~;
#X obj 1054 467 -;
#X obj 1054 495 + 1, f 4;
#X floatatom 846 385 5 0 0 0 - - -, f 5;
#X floatatom 1127 385 5 0 0 0 - - -, f 5;
#X floatatom 534 387 5 0 0 0 - - -, f 5;
#X floatatom 295 396 5 0 0 0 - - -, f 5;
#X obj 564 136 statfeed;
#X floatatom 590 86 5 0 0 0 - - -, f 5;
#X floatatom 617 111 5 0 0 0 - - -, f 5;
#X obj 283 15 loadbang;
#X msg 564 60 sequence;
#X obj 283 43 t b b b;
#X floatatom 564 176 5 0 0 0 - - -, f 5;
#X obj 858 91 random 1000;
#X obj 858 119 / 1000;
#X obj 826 42 r getnew;
#X msg 10 96 dimen 960 720;
#X obj 782 605 + 1, f 4;
#X obj 782 633 / 2;
#X obj 782 577 -;
#X text 400 135 Can't take over 100!;
#X msg 329 69 100;
#X msg 306 94 130;
#X obj 246 225 bng 15 250 50 0 empty empty empty 17 7 0 10 -262144
-1 -1;
#X obj 723 345 FilmSoundPlayer 2;
#X obj 985 172 s soundfilename;
#X obj 985 62 loadbang;
#X obj 985 90 bng 15 250 50 0 empty empty empty 17 7 0 10 -262144 -1
-1;
#X obj 985 144 s textfilename;
#X obj 384 345 FilmSoundPlayer 1;
#X obj 154 345 FilmSoundPlayer 0;
#X obj 986 345 FilmSoundPlayer 3;
#X msg 985 116 symbol BergmanSilence;
#X obj 324 630 pix_record;
#X obj 1065 653 pix_record;
#X msg 1010 609 bang;
#X msg 1044 579 auto \$1;
#X obj 1046 559 tgl 15 0 empty empty empty 0 -6 0 8 -262144 -1 -1 0
1;
#X msg 1110 459 dialog;
#X obj 1135 520 t a;
#X msg 1139 563 file /home/joshua/Desktop/Github_Repos/Silencer/testexport.mov
;
#X obj 1194 513 bng 15 250 50 0 empty empty empty 0 -6 0 8 -258699
-1 -1;
#N canvas 43 81 450 300 savepanel 0;
#X obj 114 62 inlet;
#X obj 114 254 outlet;
#X obj 114 199 t b a;
#X obj 114 125 savepanel;
#X msg 114 162 set file \$1;
#X connect 0 0 3 0;
#X connect 2 0 1 0;
#X connect 2 1 1 0;
#X connect 3 0 4 0;
#X connect 4 0 2 0;
#X restore 1196 534 pd savepanel;
#X msg 1204 627 record \$1;
#X obj 1204 609 tgl 15 0 empty empty empty 0 -6 0 8 -262144 -1 -1 0
1;
#X obj 1133 618 t a;
#X floatatom 1071 686 5 0 0 0 - - -, f 5;
#X msg 1171 449 codec mjpa;
#X obj 124 472 VidPlayer;
#X obj 693 472 VidPlayer;
#X obj 956 472 VidPlayer;
#X msg 1164 472 codeclist;
#X obj 898 672 print;
#X msg 1184 492 codec 20;
#X connect 0 0 2 0;
#X connect 3 0 2 0;
#X connect 5 0 4 0;
#X connect 5 0 89 0;
#X connect 6 0 7 2;
#X connect 6 0 74 0;
#X connect 7 0 14 0;
#X connect 10 0 11 2;
#X connect 10 0 74 1;
#X connect 11 0 14 1;
#X connect 14 0 5 0;
#X connect 15 0 14 2;
#X connect 16 0 20 0;
#X connect 16 1 68 0;
#X connect 17 0 24 0;
#X connect 17 1 31 0;
#X connect 17 2 36 0;
#X connect 17 3 40 0;
#X connect 18 0 8 0;
#X connect 18 0 9 0;
#X connect 18 0 12 0;
#X connect 18 0 13 0;
#X connect 19 0 16 0;
#X connect 19 0 78 0;
#X connect 20 0 21 0;
#X connect 21 0 23 0;
#X connect 22 0 21 0;
#X connect 23 0 17 0;
#X connect 27 0 28 0;
#X connect 29 0 23 1;
#X connect 29 1 23 2;
#X connect 30 0 7 1;
#X connect 44 0 45 0;
#X connect 45 0 6 0;
#X connect 46 0 10 0;
#X connect 47 0 48 0;
#X connect 48 0 15 0;
#X connect 49 0 16 0;
#X connect 50 0 44 0;
#X connect 51 0 16 0;
#X connect 52 0 16 0;
#X connect 53 0 54 0;
#X connect 53 0 54 1;
#X connect 55 0 56 0;
#X connect 56 0 46 0;
#X connect 61 0 67 0;
#X connect 62 0 61 1;
#X connect 63 0 61 2;
#X connect 64 0 66 0;
#X connect 65 0 61 0;
#X connect 66 0 65 0;
#X connect 66 1 77 0;
#X connect 66 2 76 0;
#X connect 67 0 22 0;
#X connect 68 0 69 0;
#X connect 69 0 61 0;
#X connect 70 0 16 0;
#X connect 71 0 2 0;
#X connect 72 0 73 0;
#X connect 73 0 15 0;
#X connect 74 0 72 0;
#X connect 76 0 62 0;
#X connect 77 0 63 0;
#X connect 78 0 18 0;
#X connect 79 0 38 0;
#X connect 79 0 37 0;
#X connect 79 1 39 0;
#X connect 79 2 55 0;
#X connect 79 2 57 0;
#X connect 81 0 82 0;
#X connect 82 0 87 0;
#X connect 84 0 33 0;
#X connect 84 0 32 0;
#X connect 84 1 35 0;
#X connect 84 2 50 1;
#X connect 84 2 59 0;
#X connect 85 0 26 0;
#X connect 85 0 25 0;
#X connect 85 1 34 0;
#X connect 85 2 50 0;
#X connect 85 2 60 0;
#X connect 86 0 42 0;
#X connect 86 0 41 0;
#X connect 86 1 43 0;
#X connect 86 2 55 1;
#X connect 86 2 58 0;
#X connect 87 0 83 0;
#X connect 87 0 80 0;
#X connect 89 0 107 0;
#X connect 89 1 101 0;
#X connect 89 2 107 0;
#X connect 90 0 89 0;
#X connect 91 0 89 0;
#X connect 92 0 91 0;
#X connect 93 0 94 0;
#X connect 94 0 89 0;
#X connect 95 0 100 0;
#X connect 96 0 97 0;
#X connect 97 0 95 0;
#X connect 98 0 100 0;
#X connect 99 0 98 0;
#X connect 100 0 89 0;
#X connect 102 0 94 0;
#X connect 103 0 7 0;
#X connect 104 0 11 0;
#X connect 105 0 11 1;
#X connect 106 0 94 0;
#X connect 108 0 94 0;
