#N canvas 78 109 895 659 10;
#X msg 10 67 0 \, destroy;
#X obj 10 11 Gem;
#X obj 10 123 gemwin;
#X msg 10 39 create \, 1;
#X obj 556 625 rectangle 6 4;
#X obj 556 598 pix_texture;
#X floatatom 456 485 5 0 0 0 - - -, f 5;
#X obj 396 510 pix_mix 0;
#X obj 115 46 Logistic;
#X obj 163 457 VidPlayer;
#X floatatom 182 431 5 0 0 0 - - -, f 5;
#X obj 223 431 tgl 15 0 empty empty empty 17 7 0 10 -262144 -1 -1 0
1;
#X obj 163 431 bng 15 250 50 0 empty empty empty 17 7 0 10 -262144
-1 -1;
#X obj 426 442 VidPlayer;
#X floatatom 445 416 5 0 0 0 - - -, f 5;
#X obj 486 416 tgl 15 0 empty empty empty 17 7 0 10 -262144 -1 -1 0
1;
#X obj 426 416 bng 15 250 50 0 empty empty empty 17 7 0 10 -262144
-1 -1;
#X floatatom 753 485 5 0 0 0 - - -, f 5;
#X obj 693 510 pix_mix 0;
#X obj 693 442 VidPlayer;
#X floatatom 712 416 5 0 0 0 - - -, f 5;
#X obj 753 416 tgl 15 0 empty empty empty 17 7 0 10 -262144 -1 -1 0
1;
#X obj 693 416 bng 15 250 50 0 empty empty empty 17 7 0 10 -262144
-1 -1;
#X obj 956 442 VidPlayer;
#X floatatom 975 416 5 0 0 0 - - -, f 5;
#X obj 1016 416 tgl 15 0 empty empty empty 17 7 0 10 -262144 -1 -1
0 1;
#X obj 956 416 bng 15 250 50 0 empty empty empty 17 7 0 10 -262144
-1 -1;
#X obj 556 570 pix_mix 0;
#X floatatom 616 535 5 0 0 0 - - -, f 5;
#X msg 28 468 0.5;
#X msg 28 518 0.5;
#X obj 28 421 bng 15 250 50 0 empty empty empty 17 7 0 10 -262144 -1
-1;
#X msg 10 95 dimen 320 240;
#X obj 115 19 bng 15 250 50 0 empty empty empty 17 7 0 10 -262144 -1
-1;
#X obj 1146 24 t f b;
#X obj 565 260 route 0 1 2 3;
#X obj 565 232 pack;
#X obj 163 318 FilmSoundPlayer 0;
#X obj 163 346 s getnew;
#X obj 426 346 s getnew;
#X obj 693 346 s getnew;
#X obj 956 346 s getnew;
#X obj 1001 7 r getnew;
#X obj 243 289 bng 15 250 50 0 empty empty empty 17 7 0 10 -262144
-1 -1;
#X obj 250 382 unpack f f f;
#X obj 206 408 * 25;
#X msg 145 238 1256.74 1269.48 29;
#X obj 192 585 dac~;
#X obj 145 260 t b a;
#X obj 426 318 FilmSoundPlayer 1;
#X obj 693 318 FilmSoundPlayer 2;
#X obj 956 318 FilmSoundPlayer 3;
#X connect 0 0 2 0;
#X connect 3 0 2 0;
#X connect 5 0 4 0;
#X connect 6 0 7 2;
#X connect 7 0 27 0;
#X connect 8 0 36 1;
#X connect 9 0 7 0;
#X connect 10 0 9 1;
#X connect 11 0 9 2;
#X connect 12 0 9 0;
#X connect 13 0 7 1;
#X connect 14 0 13 1;
#X connect 15 0 13 2;
#X connect 16 0 13 0;
#X connect 17 0 18 2;
#X connect 18 0 27 1;
#X connect 19 0 18 0;
#X connect 20 0 19 1;
#X connect 21 0 19 2;
#X connect 22 0 19 0;
#X connect 23 0 18 1;
#X connect 24 0 23 1;
#X connect 25 0 23 2;
#X connect 26 0 23 0;
#X connect 27 0 5 0;
#X connect 28 0 27 2;
#X connect 29 0 6 0;
#X connect 29 0 17 0;
#X connect 30 0 28 0;
#X connect 31 0 29 0;
#X connect 31 0 30 0;
#X connect 32 0 2 0;
#X connect 33 0 8 0;
#X connect 34 0 36 0;
#X connect 34 1 8 1;
#X connect 36 0 35 0;
#X connect 37 0 38 0;
#X connect 37 1 47 0;
#X connect 42 0 34 0;
#X connect 43 0 37 1;
#X connect 44 0 45 0;
#X connect 45 0 10 0;
#X connect 46 0 44 0;
#X connect 46 0 48 0;
#X connect 48 0 43 0;
#X connect 48 1 37 0;
#X connect 49 0 39 0;
#X connect 50 0 40 0;
#X connect 51 0 41 0;
