#N canvas 334 240 651 406 10;
#X msg 212 116 set \$1;
#X floatatom 162 144 5 0 0 0 - - -, f 5;
#X obj 162 116 t b f;
#X obj 210 141 textfiler;
#X floatatom 162 73 5 0 0 0 - - -, f 5;
#X obj 210 231 nbx 5 14 -1e+37 1e+37 0 0 empty empty empty 0 -8 0 10
-262144 -1 -1 100.122 256;
#X obj 270 231 nbx 5 14 -1e+37 1e+37 0 0 empty empty empty 0 -8 0 10
-262144 -1 -1 102.395 256;
#X obj 210 256 FilmSoundPlayer;
#X obj 262 328 dac~;
#X obj 262 300 *~;
#X msg 270 73 read SilenceTenMono.wav_Labels cr;
#X obj 60 71 f;
#X obj 96 71 + 1;
#X obj 60 43 bng 15 250 50 0 empty empty empty 17 7 0 10 -262144 -1
-1;
#X msg 78 43 0;
#X connect 0 0 1 0;
#X connect 2 0 1 0;
#X connect 2 1 3 0;
#X connect 3 0 5 0;
#X connect 3 1 6 0;
#X connect 4 0 2 0;
#X connect 5 0 7 0;
#X connect 6 0 7 1;
#X connect 7 1 9 0;
#X connect 7 2 9 1;
#X connect 9 0 8 0;
#X connect 9 0 8 1;
#X connect 10 0 3 1;
#X connect 11 0 12 0;
#X connect 11 0 4 0;
#X connect 12 0 11 1;
#X connect 13 0 11 0;
#X connect 14 0 11 1;
