#N canvas 504 352 651 406 10;
#X floatatom 162 144 5 0 0 0 - - -, f 5;
#X obj 162 116 t b f;
#X obj 210 141 textfiler;
#X floatatom 162 73 5 0 0 0 - - -, f 5;
#X obj 210 231 nbx 5 14 -1e+37 1e+37 0 0 empty empty empty 0 -8 0 10
-262144 -1 -1 460.584 256;
#X obj 270 231 nbx 5 14 -1e+37 1e+37 0 0 empty empty empty 0 -8 0 10
-262144 -1 -1 470.303 256;
#X obj 210 256 FilmSoundPlayer;
#X obj 262 357 dac~;
#X obj 262 300 *~;
#X obj 60 71 f;
#X obj 96 71 + 1;
#X obj 60 43 bng 15 250 50 0 empty empty empty 17 7 0 10 -262144 -1
-1;
#X obj 384 282 *~;
#X floatatom 426 236 5 0 0 0 - - -, f 5;
#X floatatom 144 27 5 0 0 0 - - -, f 5;
#X msg 270 73 read SilenceTenMono_Labels.txt cr;
#X msg 78 43 1;
#X connect 1 0 0 0;
#X connect 1 1 2 0;
#X connect 2 0 4 0;
#X connect 2 1 5 0;
#X connect 3 0 1 0;
#X connect 4 0 6 0;
#X connect 5 0 6 1;
#X connect 6 1 8 0;
#X connect 6 2 8 1;
#X connect 8 0 12 0;
#X connect 9 0 10 0;
#X connect 9 0 3 0;
#X connect 10 0 9 1;
#X connect 11 0 9 0;
#X connect 12 0 7 0;
#X connect 12 0 7 1;
#X connect 13 0 12 1;
#X connect 14 0 9 1;
#X connect 15 0 2 1;
#X connect 16 0 9 1;
