#N canvas 559 152 1356 853 10;
#X obj 1292 62 Gem;
#X msg 1080 114 0 \, destroy;
#X obj 1113 172 gemwin;
#X msg 1113 88 create \, 1;
#X msg 1140 144 dimen 960 720;
#X obj 279 328 pix_gain;
#X obj 279 633 pix_texture;
#X obj 279 662 rectangle 6 4;
#X obj 61 126 s soundfilename;
#X obj 61 44 bng 15 250 50 0 empty empty empty 17 7 0 10 -262144 -1
-1;
#X obj 61 98 s textfilename;
#X text 90 42 CHOOSE SOUNDTRACK FILE;
#X msg 61 70 symbol The_Silence.wav;
#X obj 279 198 unpack;
#X floatatom 394 259 5 0 0 0 - - -, f 5;
#X obj 569 356 pix_gain;
#X obj 569 198 unpack;
#X floatatom 684 259 5 0 0 0 - - -, f 5;
#X obj 869 198 unpack;
#X floatatom 984 259 5 0 0 0 - - -, f 5;
#X obj 869 456 pix_gain;
#X msg 869 127 300 308;
#X obj 926 85 s hamming_bang;
#X obj 939 25 bng 15 250 50 0 empty empty empty 17 7 0 10 -262144 -1
-1;
#X obj 495 230 FilmSoundPlayer_2 1, f 32;
#X obj 279 279 VidPlayer 0;
#X obj 816 195 bng 15 250 50 0 empty empty empty 17 7 0 10 -262144
-1 -1;
#X obj 205 230 FilmSoundPlayer_2 0, f 32;
#X obj 795 230 FilmSoundPlayer_2 2, f 32;
#X obj 195 164 bng 15 250 50 0 empty empty empty 17 7 0 10 -262144
-1 -1;
#X obj 485 160 bng 15 250 50 0 empty empty empty 17 7 0 10 -262144
-1 -1;
#X msg 279 127 100 110;
#X obj 569 278 VidPlayer 1;
#X obj 869 269 VidPlayer 2;
#X obj 560 53 t b b;
#X obj 550 14 bng 15 250 50 0 empty empty empty 17 7 0 10 -262144 -1
-1;
#X floatatom 606 585 5 0 0 0 - - -, f 5;
#X obj 606 649 +;
#X obj 671 631 t b f;
#X floatatom 606 685 5 0 0 0 - - -, f 5;
#X obj 606 713 max 1;
#X floatatom 606 742 5 0 0 0 - - -, f 5;
#X obj 579 759 /;
#X obj 644 759 /;
#X obj 644 547 t f f;
#X obj 579 547 t f f;
#X floatatom 579 788 5 0 0 0 - - -, f 5;
#X floatatom 644 788 5 0 0 0 - - -, f 5;
#X msg 569 127 600 608;
#X obj 279 374 pix_mix 1 1;
#X obj 279 474 pix_mix 1 1;
#X obj 736 667 +;
#X obj 736 607 t b f;
#X obj 709 547 t f f;
#X obj 709 759 /;
#X floatatom 709 788 5 0 0 0 - - -, f 5;
#X connect 1 0 2 0;
#X connect 3 0 2 0;
#X connect 4 0 2 0;
#X connect 5 0 49 0;
#X connect 6 0 7 0;
#X connect 9 0 12 0;
#X connect 12 0 10 0;
#X connect 12 0 8 0;
#X connect 13 0 27 1;
#X connect 13 0 25 1;
#X connect 13 1 27 2;
#X connect 13 1 25 2;
#X connect 14 0 45 0;
#X connect 15 0 49 1;
#X connect 16 0 24 1;
#X connect 16 0 32 1;
#X connect 16 1 24 2;
#X connect 16 1 32 2;
#X connect 17 0 44 0;
#X connect 18 0 28 1;
#X connect 18 0 33 1;
#X connect 18 1 28 2;
#X connect 18 1 33 2;
#X connect 19 0 53 0;
#X connect 20 0 50 1;
#X connect 21 0 18 0;
#X connect 23 0 22 0;
#X connect 24 1 17 0;
#X connect 25 0 5 0;
#X connect 26 0 28 0;
#X connect 26 0 33 0;
#X connect 27 1 14 0;
#X connect 28 1 19 0;
#X connect 29 0 27 0;
#X connect 29 0 25 0;
#X connect 30 0 24 0;
#X connect 30 0 32 0;
#X connect 31 0 13 0;
#X connect 32 0 15 0;
#X connect 33 0 20 0;
#X connect 34 0 30 0;
#X connect 34 0 29 0;
#X connect 34 0 26 0;
#X connect 34 1 48 0;
#X connect 34 1 31 0;
#X connect 34 1 21 0;
#X connect 35 0 34 0;
#X connect 36 0 37 0;
#X connect 37 0 51 0;
#X connect 38 0 37 0;
#X connect 38 1 37 1;
#X connect 39 0 40 0;
#X connect 40 0 41 0;
#X connect 41 0 42 1;
#X connect 41 0 43 1;
#X connect 41 0 54 1;
#X connect 42 0 46 0;
#X connect 43 0 47 0;
#X connect 44 0 43 0;
#X connect 44 1 38 0;
#X connect 45 0 42 0;
#X connect 45 1 36 0;
#X connect 46 0 5 1;
#X connect 47 0 15 1;
#X connect 48 0 16 0;
#X connect 49 0 50 0;
#X connect 50 0 6 0;
#X connect 51 0 39 0;
#X connect 52 0 51 0;
#X connect 52 1 51 1;
#X connect 53 0 54 0;
#X connect 53 1 52 0;
#X connect 54 0 55 0;
#X connect 55 0 20 1;
