#N canvas 234 160 1152 853 10;
#X obj 279 328 pix_gain;
#X obj 279 703 pix_texture;
#X obj 279 732 rectangle 6 4;
#X floatatom 394 259 5 0 0 0 - - -, f 5;
#X obj 569 356 pix_gain;
#X floatatom 684 259 5 0 0 0 - - -, f 5;
#X floatatom 984 259 5 0 0 0 - - -, f 5;
#X obj 869 456 pix_gain;
#X obj 279 279 VidPlayer 0;
#X obj 795 198 bng 15 250 50 0 empty empty empty 17 7 0 10 -262144
-1 -1;
#X obj 205 230 FilmSoundPlayer_2 0, f 32;
#X obj 205 198 bng 15 250 50 0 empty empty empty 17 7 0 10 -262144
-1 -1;
#X obj 495 198 bng 15 250 50 0 empty empty empty 17 7 0 10 -262144
-1 -1;
#X floatatom 606 435 5 0 0 0 - - -, f 5;
#X obj 606 519 +;
#X obj 671 501 t b f;
#X floatatom 606 555 5 0 0 0 - - -, f 5;
#X obj 606 583 max 1;
#X floatatom 606 612 5 0 0 0 - - -, f 5;
#X obj 579 629 /;
#X obj 644 629 /;
#X obj 644 397 t f f;
#X obj 579 397 t f f;
#X floatatom 579 658 5 0 0 0 - - -, f 5;
#X floatatom 644 658 5 0 0 0 - - -, f 5;
#X obj 279 374 pix_mix 1 1;
#X obj 279 474 pix_mix 1 1;
#X obj 736 537 +;
#X obj 736 477 t b f;
#X obj 709 397 t f f;
#X obj 709 629 /;
#X floatatom 709 658 5 0 0 0 - - -, f 5;
#X obj 206 457 *~;
#X obj 496 457 *~;
#X obj 796 457 *~;
#X obj 394 171 r soundfilename;
#X obj 684 171 r soundfilename;
#X obj 984 171 r soundfilename;
#X obj 275 86 inlet;
#X obj 205 143 sel 1;
#X obj 275 125 unpack f f f;
#X obj 565 86 inlet;
#X obj 495 143 sel 1;
#X obj 565 125 unpack f f f;
#X obj 865 86 inlet;
#X obj 795 143 sel 1;
#X obj 865 125 unpack f f f;
#X obj 206 773 outlet~;
#X obj 495 773 outlet~;
#X obj 795 773 outlet~;
#X obj 569 278 VidPlayer 1;
#X obj 869 269 VidPlayer 2;
#X obj 495 230 FilmSoundPlayer_2 1, f 32;
#X obj 795 230 FilmSoundPlayer_2 2, f 32;
#X obj 279 765 pix_record;
#X obj 370 747 r pixrecord;
#X connect 0 0 25 0;
#X connect 1 0 2 0;
#X connect 2 0 54 0;
#X connect 3 0 22 0;
#X connect 4 0 25 1;
#X connect 5 0 21 0;
#X connect 6 0 29 0;
#X connect 7 0 26 1;
#X connect 8 0 0 0;
#X connect 9 0 51 0;
#X connect 9 0 53 0;
#X connect 10 0 32 0;
#X connect 10 1 3 0;
#X connect 11 0 10 0;
#X connect 11 0 8 0;
#X connect 12 0 50 0;
#X connect 12 0 52 0;
#X connect 13 0 14 0;
#X connect 14 0 27 0;
#X connect 15 0 14 0;
#X connect 15 1 14 1;
#X connect 16 0 17 0;
#X connect 17 0 18 0;
#X connect 18 0 19 1;
#X connect 18 0 20 1;
#X connect 18 0 30 1;
#X connect 19 0 23 0;
#X connect 20 0 24 0;
#X connect 21 0 20 0;
#X connect 21 1 15 0;
#X connect 22 0 19 0;
#X connect 22 1 13 0;
#X connect 23 0 0 1;
#X connect 23 0 32 1;
#X connect 24 0 4 1;
#X connect 24 0 33 1;
#X connect 25 0 26 0;
#X connect 26 0 1 0;
#X connect 27 0 16 0;
#X connect 28 0 27 0;
#X connect 28 1 27 1;
#X connect 29 0 30 0;
#X connect 29 1 28 0;
#X connect 30 0 31 0;
#X connect 31 0 7 1;
#X connect 31 0 34 1;
#X connect 32 0 47 0;
#X connect 33 0 48 0;
#X connect 34 0 49 0;
#X connect 35 0 10 3;
#X connect 36 0 52 3;
#X connect 37 0 53 3;
#X connect 38 0 40 0;
#X connect 39 0 11 0;
#X connect 40 0 39 0;
#X connect 40 1 10 1;
#X connect 40 1 8 1;
#X connect 40 2 10 2;
#X connect 40 2 8 2;
#X connect 41 0 43 0;
#X connect 42 0 12 0;
#X connect 43 0 42 0;
#X connect 43 1 50 1;
#X connect 43 1 52 1;
#X connect 43 2 50 2;
#X connect 43 2 52 2;
#X connect 44 0 46 0;
#X connect 45 0 9 0;
#X connect 46 0 45 0;
#X connect 46 1 51 1;
#X connect 46 1 53 1;
#X connect 46 2 51 2;
#X connect 46 2 53 2;
#X connect 50 0 4 0;
#X connect 51 0 7 0;
#X connect 52 0 33 0;
#X connect 52 1 5 0;
#X connect 53 0 34 0;
#X connect 53 1 6 0;
#X connect 55 0 54 0;
