#N canvas 61 112 1666 846 10;
#X msg 25 244 0 \, destroy;
#X obj 1604 45 Gem;
#X obj 58 302 gemwin;
#X msg 58 218 create \, 1;
#X obj 1047 520 rectangle 6 4;
#X obj 1047 491 pix_texture;
#X obj 1047 427 pix_mix 0;
#X msg 236 389 set \$1;
#X floatatom 301 407 5 0 0 0 - - -, f 5;
#X obj 301 369 t b f;
#X obj 324 444 textfiler;
#X obj 862 744 catch~ todac;
#X obj 301 309 statfeed;
#X floatatom 323 233 5 0 0 0 - - -, f 5;
#X floatatom 346 271 5 0 0 0 - - -, f 5;
#X msg 301 194 sequence;
#X floatatom 301 331 5 0 0 0 - - -, f 5;
#X obj 209 263 random 1000;
#X obj 209 291 / 1000;
#X obj 136 208 r getnew;
#X msg 85 274 dimen 960 720;
#X obj 1237 742 s soundfilename;
#X obj 1237 660 bng 15 250 50 0 empty empty empty 17 7 0 10 -262144
-1 -1;
#X obj 1237 714 s textfilename;
#X obj 1047 549 pix_record;
#X obj 626 790 t a;
#X msg 448 710 file /home/joshua/Desktop/Github_Repos/Quiet_Takes/throwaway
;
#N canvas 43 81 450 300 savepanel 0;
#X obj 114 62 inlet;
#X obj 114 254 outlet;
#X obj 114 199 t b a;
#X obj 114 125 savepanel;
#X msg 114 162 set file \$1;
#X connect 0 0 3 0;
#X connect 2 0 1 0;
#X connect 2 1 1 0;
#X connect 3 0 4 0;
#X connect 4 0 2 0;
#X restore 448 682 pd savepanel;
#X msg 724 776 record \$1;
#X obj 724 594 tgl 30 0 empty empty empty 0 -6 0 8 -262144 -1 -1 0
1;
#X obj 448 800 t a;
#X floatatom 1075 578 5 0 0 0 - - -, f 5;
#X msg 634 759 codeclist;
#X obj 1039 817 writesf~;
#X msg 956 748 start;
#X msg 975 719 stop;
#X obj 956 690 sel 1 0;
#X obj 111 831 s startpoint-0;
#X obj 151 811 s endpoint-0;
#X obj 129 767 s startpoint-1;
#X obj 169 747 s endpoint-1;
#X obj 967 531 r pixrecord;
#X obj 626 818 s pixrecord;
#N canvas 765 89 847 436 starter 0;
#X msg 188 136 0;
#X msg 168 210 1;
#X msg 148 280 2;
#X msg 208 108 1;
#X obj 168 190 del 500;
#X obj 148 260 del 800;
#X obj 208 260 s autoplay;
#X obj 148 22 inlet;
#X obj 148 328 outlet;
#X text 238 108 Start playing films;
#X text 215 137 Get startpoint for 0;
#X text 176 281 Get startpoint for 2 after delay;
#X text 196 211 Get startpoint for 1 after delay;
#X obj 108 68 t b b b b b;
#X msg 49 308 3;
#X obj 8 280 del 1200;
#X connect 0 0 8 0;
#X connect 1 0 8 0;
#X connect 2 0 8 0;
#X connect 3 0 6 0;
#X connect 4 0 1 0;
#X connect 5 0 2 0;
#X connect 7 0 13 0;
#X connect 13 0 15 0;
#X connect 13 1 5 0;
#X connect 13 2 4 0;
#X connect 13 3 0 0;
#X connect 13 4 3 0;
#X connect 14 0 8 0;
#X connect 15 0 14 0;
#X restore 209 197 pd starter;
#X obj 448 660 bng 15 250 50 0 empty empty empty 17 7 0 10 -262144
-1 -1;
#X obj 861 843 dac~;
#X obj 626 660 tgl 15 0 empty empty empty 17 7 0 10 -262144 -1 -1 0
1;
#X msg 626 847 \; pd dsp \$1;
#X floatatom 375 475 5 0 0 0 - - -, f 5;
#X obj 209 226 t b f;
#X text 409 475 Avg RMS;
#X obj 820 730 vsl 30 128 0 1 0 0 empty empty empty 0 -9 0 10 -262144
-1 -1 6350 1;
#X obj 862 799 *~;
#X obj 820 670 loadbang;
#X obj 301 542 pack f f f f;
#X obj 129 727 unpack f f f;
#X obj 111 791 unpack f f f;
#X obj 235 767 s volume-1;
#X obj 555 312 vsl 30 128 0 1 0 0 empty empty empty 0 -9 0 10 -262144
-1 -1 3175 1;
#X obj 429 443 t b f;
#X obj 1125 689 textfiler_getlen;
#X floatatom 1125 718 5 0 0 0 - - -, f 5;
#X msg 1125 660 1000;
#X obj 1008 601 bng 30 250 50 0 empty empty empty 17 7 0 10 -262144
-1 -1;
#X obj 1125 756 s num_scenes;
#X obj 555 69 loadbang;
#X obj 419 176 r num_scenes;
#X obj 431 253 *;
#X obj 506 122 vsl 30 128 0 3 0 0 empty empty empty 0 -9 0 10 -262144
-1 -1 8467 1;
#X msg 506 87 2;
#X obj 58 179 t b b;
#X obj 58 59 tgl 30 0 empty empty empty 17 7 0 10 -262144 -1 -1 1 1
;
#X obj 58 150 sel 1;
#X obj 1008 642 t b b b b b;
#X text 1047 606 Load and Set up;
#X text 762 601 Start Recording;
#X text 93 65 Start Playback;
#X text 1266 658 CHOOSE SOUNDTRACK FILE;
#X msg 1039 785 open soundtrack.wav;
#X msg 1237 686 symbol The_Silence.wav;
#X obj 419 215 t b f f;
#X msg 566 759 codec 32;
#X obj 216 831 s volume-0;
#X obj 375 510 expr ($f2/$f1);
#X obj 1266 189 bng 15 250 50 0 empty empty empty 17 7 0 10 -262144
-1 -1;
#X obj 1292 241 s getnew;
#X obj 1340 221 throw~ todac;
#X floatatom 1391 201 5 0 0 0 - - -, f 5;
#X obj 1456 190 bng 15 250 50 0 empty empty empty 17 7 0 10 -262144
-1 -1;
#X obj 1482 242 s getnew;
#X obj 1531 221 throw~ todac;
#X floatatom 1581 201 5 0 0 0 - - -, f 5;
#X obj 111 560 route 0 1 2 3;
#X obj 148 663 unpack f f f;
#X obj 148 703 s startpoint-2;
#X obj 188 683 s endpoint-2;
#X obj 254 703 s volume-2;
#X obj 167 589 unpack f f f;
#X obj 167 639 s startpoint-3;
#X obj 200 619 s endpoint-3;
#X obj 273 639 s volume-3;
#X msg 820 699 0.5;
#X obj 1152 218 Balancer;
#X obj 946 189 bng 15 250 50 0 empty empty empty 17 7 0 10 -262144
-1 -1;
#X obj 972 241 s getnew;
#X obj 1020 221 throw~ todac;
#X floatatom 1071 201 5 0 0 0 - - -, f 5;
#X obj 755 189 bng 15 250 50 0 empty empty empty 17 7 0 10 -262144
-1 -1;
#X obj 781 242 s getnew;
#X obj 830 221 throw~ todac;
#X floatatom 880 201 5 0 0 0 - - -, f 5;
#X msg 555 281 0.25;
#X text 567 143 Ratio: Statfeed \; exponent to num \; elements. Lower
\; = more random.;
#X text 596 332 Normalizing volume \; based on mean RMS \; for clip
being played. \; For 4 players \, max should \; be 0.25 and probably
\; lower.;
#X obj 632 624 sel 0;
#X msg 584 642 0;
#X obj 1433 851 s steepness_0;
#X obj 1464 831 s steepness_1;
#X obj 1463 570 ctlin;
#X obj 1463 684 pack;
#X msg 1463 713 \$2 \$1;
#X obj 1433 742 route 0 1 2 3 4, f 27;
#X obj 1463 599 / 127;
#X floatatom 1463 628 5 0 0 0 - - -, f 5;
#X floatatom 1476 656 5 0 0 0 - - -, f 5;
#X obj 1496 811 s steepness_2;
#X obj 1528 791 s steepness_3;
#X obj 1560 771 s steepness_4;
#X obj 972 143 r trigger_1;
#X obj 781 143 r trigger_0;
#X obj 58 391 s trigger_0;
#X obj 121 351 bng 15 250 50 0 empty empty empty 17 7 0 10 -262144
-1 -1;
#X obj 1292 143 r trigger_2;
#X obj 1482 143 r trigger_3;
#X obj 1676 470 s crossfade_time;
#X floatatom 1670 392 5 0 0 0 - - -, f 5;
#X obj 1577 372 vsl 15 128 0 4000 0 0 empty empty empty 0 -9 0 10 -262144
-1 -1 5400 1;
#X obj 781 172 FilmSoundPlayer 0;
#X obj 128 488 s getnew;
#X msg 141 450 0 \, 1 \, 2 \, 3;
#X obj 899 306 VidPlayer 0;
#X obj 899 384 pix_mix 0;
#X obj 1161 384 pix_mix 0;
#X obj 972 172 FilmSoundPlayer 1;
#X obj 1292 172 FilmSoundPlayer 2;
#X obj 1482 172 FilmSoundPlayer 3;
#X obj 899 345 pix_gain;
#X obj 1252 306 VidPlayer 3;
#X obj 1020 306 VidPlayer 1;
#X obj 1161 306 VidPlayer 2;
#X obj 1020 345 pix_gain;
#X obj 1161 345 pix_gain;
#X obj 1252 345 pix_gain;
#X obj 1272 431 r sum_of_all;
#X connect 0 0 2 0;
#X connect 3 0 2 0;
#X connect 4 0 24 0;
#X connect 5 0 4 0;
#X connect 6 0 5 0;
#X connect 7 0 8 0;
#X connect 8 0 54 0;
#X connect 9 0 8 0;
#X connect 9 1 10 0;
#X connect 10 0 54 1;
#X connect 10 1 54 2;
#X connect 10 2 48 0;
#X connect 11 0 52 0;
#X connect 12 0 16 0;
#X connect 13 0 12 1;
#X connect 14 0 12 2;
#X connect 15 0 12 0;
#X connect 16 0 9 0;
#X connect 17 0 18 0;
#X connect 18 0 12 0;
#X connect 19 0 49 0;
#X connect 20 0 2 0;
#X connect 22 0 79 0;
#X connect 24 1 31 0;
#X connect 25 0 42 0;
#X connect 26 0 30 0;
#X connect 27 0 26 0;
#X connect 28 0 42 0;
#X connect 29 0 28 0;
#X connect 29 0 36 0;
#X connect 29 0 114 0;
#X connect 30 0 42 0;
#X connect 32 0 25 0;
#X connect 34 0 33 0;
#X connect 35 0 33 0;
#X connect 36 0 34 0;
#X connect 36 1 35 0;
#X connect 41 0 24 0;
#X connect 43 0 49 0;
#X connect 44 0 27 0;
#X connect 46 0 81 0;
#X connect 46 0 47 0;
#X connect 48 0 83 0;
#X connect 49 0 17 0;
#X connect 49 1 7 0;
#X connect 51 0 52 1;
#X connect 52 0 33 0;
#X connect 52 0 45 0;
#X connect 52 0 45 1;
#X connect 53 0 101 0;
#X connect 54 0 92 0;
#X connect 55 0 39 0;
#X connect 55 1 40 0;
#X connect 55 2 57 0;
#X connect 56 0 37 0;
#X connect 56 1 38 0;
#X connect 56 2 82 0;
#X connect 58 0 59 0;
#X connect 59 0 48 0;
#X connect 59 1 83 1;
#X connect 60 0 61 0;
#X connect 61 0 64 0;
#X connect 62 0 60 0;
#X connect 63 0 73 0;
#X connect 65 0 69 0;
#X connect 65 0 111 0;
#X connect 66 0 80 0;
#X connect 67 0 14 0;
#X connect 68 0 67 0;
#X connect 69 0 68 0;
#X connect 70 0 3 0;
#X connect 70 1 43 0;
#X connect 70 1 20 0;
#X connect 71 0 72 0;
#X connect 72 0 70 0;
#X connect 72 0 130 0;
#X connect 72 1 0 0;
#X connect 72 1 115 0;
#X connect 73 0 44 0;
#X connect 73 1 46 0;
#X connect 73 2 78 0;
#X connect 73 3 62 0;
#X connect 73 4 22 0;
#X connect 78 0 33 0;
#X connect 79 0 23 0;
#X connect 79 0 21 0;
#X connect 80 0 67 0;
#X connect 80 0 15 0;
#X connect 80 1 13 0;
#X connect 80 2 67 1;
#X connect 81 0 25 0;
#X connect 83 0 54 3;
#X connect 87 0 102 2;
#X connect 87 0 151 1;
#X connect 91 0 102 3;
#X connect 91 0 152 1;
#X connect 92 0 56 0;
#X connect 92 1 55 0;
#X connect 92 2 93 0;
#X connect 92 3 97 0;
#X connect 93 0 94 0;
#X connect 93 1 95 0;
#X connect 93 2 96 0;
#X connect 97 0 98 0;
#X connect 97 1 99 0;
#X connect 97 2 100 0;
#X connect 101 0 51 0;
#X connect 102 0 141 2;
#X connect 102 1 6 2;
#X connect 102 2 142 2;
#X connect 106 0 102 1;
#X connect 106 0 150 1;
#X connect 110 0 102 0;
#X connect 110 0 146 1;
#X connect 111 0 58 0;
#X connect 114 0 115 0;
#X connect 115 0 46 0;
#X connect 118 0 122 0;
#X connect 118 1 124 0;
#X connect 119 0 120 0;
#X connect 120 0 121 0;
#X connect 121 0 116 0;
#X connect 121 1 117 0;
#X connect 121 2 125 0;
#X connect 121 3 126 0;
#X connect 121 4 127 0;
#X connect 122 0 119 0;
#X connect 122 0 123 0;
#X connect 123 0 119 0;
#X connect 124 0 119 1;
#X connect 128 0 143 0;
#X connect 129 0 137 0;
#X connect 131 0 130 0;
#X connect 132 0 144 0;
#X connect 133 0 145 0;
#X connect 135 0 134 0;
#X connect 136 0 135 0;
#X connect 137 0 108 0;
#X connect 137 0 107 0;
#X connect 137 1 109 0;
#X connect 137 2 110 0;
#X connect 139 0 138 0;
#X connect 140 0 146 0;
#X connect 141 0 6 0;
#X connect 142 0 6 1;
#X connect 143 0 104 0;
#X connect 143 0 103 0;
#X connect 143 1 105 0;
#X connect 143 2 106 0;
#X connect 144 0 85 0;
#X connect 144 0 84 0;
#X connect 144 1 86 0;
#X connect 144 2 87 0;
#X connect 145 0 89 0;
#X connect 145 0 88 0;
#X connect 145 1 90 0;
#X connect 145 2 91 0;
#X connect 146 0 141 0;
#X connect 147 0 152 0;
#X connect 148 0 150 0;
#X connect 149 0 151 0;
#X connect 150 0 141 1;
#X connect 151 0 142 0;
#X connect 152 0 142 1;
