#N canvas 618 129 1216 852 10;
#X obj 812 37 Gem;
#X msg 707 155 0 \, destroy;
#X obj 707 213 gemwin;
#X msg 707 126 create \, 1;
#X msg 707 184 dimen 960 720;
#X obj 798 284 s hamming_bang;
#X obj 798 258 bng 15 250 50 0 empty empty empty 17 7 0 10 -262144
-1 -1;
#X obj 33 155 s soundfilename;
#X obj 33 73 bng 15 250 50 0 empty empty empty 17 7 0 10 -262144 -1
-1;
#X obj 33 127 s textfilename;
#X text 62 71 CHOOSE SOUNDTRACK FILE;
#X msg 33 99 symbol The_Silence.wav;
#X obj 439 676 New_Quiet_Take;
#X obj 867 136 textfiler_getlen;
#X floatatom 867 165 5 0 0 0 - - -, f 5;
#X msg 867 107 1000;
#X obj 707 97 sel 1;
#X obj 707 71 tgl 15 0 empty empty empty 17 7 0 10 -262144 -1 -1 1
1;
#X obj 297 351 statfeed;
#X obj 527 29 loadbang;
#X obj 391 89 r num_scenes;
#X obj 391 213 *;
#X obj 478 82 vsl 30 128 0 3 0 0 empty empty empty 0 -9 0 10 -262144
-1 -1 8467 1;
#X msg 478 47 2;
#X obj 391 128 t b f f;
#X text 519 103 Ratio: Statfeed \; exponent to num \; elements. Lower
\; = more random.;
#X floatatom 342 231 5 0 0 0 - - -, f 5;
#X floatatom 319 193 5 0 0 0 - - -, f 5;
#X msg 297 146 sequence;
#X obj 327 437 textfiler;
#X floatatom 297 380 5 0 0 0 - - -, f 5;
#X obj 297 408 t b f;
#X msg 216 435 set \$1;
#X floatatom 297 483 5 0 0 0 - - -, f 5;
#X obj 189 305 random 1000;
#X obj 189 333 / 1000;
#X obj 70 242 r getnew;
#X obj 189 268 t b f;
#X obj 70 297 f;
#X obj 70 271 bng 15 250 50 0 empty empty empty 17 7 0 10 -262144 -1
-1;
#X obj 103 297 + 1;
#X obj 70 326 % 3;
#X obj 306 524 pack f f f f;
#X obj 258 571 unpack f f f;
#X obj 216 542 route 0 1 2;
#X floatatom 378 471 5 0 0 0 - - -, f 5;
#X text 413 472 Avg RMS;
#X obj 525 282 vsl 30 128 0 1 0 0 empty empty empty 0 -9 0 10 -262144
-1 -1 3175 1;
#X obj 429 439 t b f;
#X obj 378 496 expr ($f2/$f1);
#X text 566 302 Normalizing volume \; based on mean RMS \; for clip
being played. \; For 4 players \, max should \; be 0.25 and probably
\; lower.;
#X msg 527 250 0.25;
#X msg 258 629 1;
#X obj 258 658 pack f f f;
#X obj 258 600 t b f;
#X obj 237 687 unpack f f f;
#X msg 237 745 1;
#X obj 237 774 pack f f f;
#X obj 237 716 t b f;
#X obj 141 571 unpack f f f;
#X msg 141 629 1;
#X obj 141 658 pack f f f;
#X obj 141 600 t b f;
#X obj 439 753 *~;
#X obj 478 753 *~;
#X obj 521 753 *~;
#X obj 469 795 dac~;
#X obj 867 193 s num_scenes;
#X obj 479 721 *~ 1;
#X connect 1 0 2 0;
#X connect 3 0 2 0;
#X connect 4 0 2 0;
#X connect 6 0 5 0;
#X connect 8 0 11 0;
#X connect 11 0 9 0;
#X connect 11 0 7 0;
#X connect 12 0 63 0;
#X connect 12 1 68 0;
#X connect 12 2 65 0;
#X connect 13 0 14 0;
#X connect 14 0 67 0;
#X connect 15 0 13 0;
#X connect 16 0 3 0;
#X connect 16 1 1 0;
#X connect 17 0 16 0;
#X connect 18 0 30 0;
#X connect 19 0 23 0;
#X connect 19 0 51 0;
#X connect 20 0 24 0;
#X connect 21 0 26 0;
#X connect 22 0 21 0;
#X connect 23 0 22 0;
#X connect 24 0 21 0;
#X connect 24 0 28 0;
#X connect 24 1 27 0;
#X connect 24 2 21 1;
#X connect 26 0 18 2;
#X connect 27 0 18 1;
#X connect 28 0 18 0;
#X connect 29 0 42 1;
#X connect 29 1 42 2;
#X connect 29 2 45 0;
#X connect 30 0 31 0;
#X connect 31 0 33 0;
#X connect 31 1 29 0;
#X connect 32 0 33 0;
#X connect 33 0 42 0;
#X connect 34 0 35 0;
#X connect 35 0 18 0;
#X connect 36 0 39 0;
#X connect 37 0 34 0;
#X connect 37 1 32 0;
#X connect 38 0 40 0;
#X connect 38 0 41 0;
#X connect 39 0 38 0;
#X connect 40 0 38 1;
#X connect 41 0 37 0;
#X connect 42 0 44 0;
#X connect 43 0 54 0;
#X connect 43 1 53 2;
#X connect 43 2 65 1;
#X connect 44 0 59 0;
#X connect 44 1 55 0;
#X connect 44 2 43 0;
#X connect 45 0 49 0;
#X connect 47 0 48 0;
#X connect 48 0 45 0;
#X connect 48 1 49 1;
#X connect 49 0 42 3;
#X connect 51 0 47 0;
#X connect 52 0 53 0;
#X connect 53 0 12 2;
#X connect 54 0 52 0;
#X connect 54 1 53 1;
#X connect 55 0 58 0;
#X connect 55 1 57 2;
#X connect 55 2 64 1;
#X connect 56 0 57 0;
#X connect 57 0 12 1;
#X connect 58 0 56 0;
#X connect 58 1 57 1;
#X connect 59 0 62 0;
#X connect 59 1 61 2;
#X connect 59 2 63 1;
#X connect 60 0 61 0;
#X connect 61 0 12 0;
#X connect 62 0 60 0;
#X connect 62 1 61 1;
#X connect 63 0 66 0;
#X connect 63 0 66 1;
#X connect 64 0 66 0;
#X connect 64 0 66 1;
#X connect 65 0 66 1;
#X connect 65 0 66 0;
#X connect 68 0 64 0;
