#N canvas 237 110 1507 873 10;
#X obj 1202 81 Gem;
#X msg 762 250 0 \, destroy;
#X obj 762 308 gemwin;
#X msg 762 221 create \, 1;
#X msg 762 279 dimen 960 720;
#X obj 743 337 s hamming_bang;
#X obj 743 311 bng 15 250 50 0 empty empty empty 17 7 0 10 -262144
-1 -1;
#X obj 173 464 New_Quiet_Take;
#X obj 910 178 textfiler_getlen;
#X floatatom 910 207 5 0 0 0 - - -, f 5;
#X msg 910 149 1000;
#X obj 762 192 sel 1;
#X obj 743 80 tgl 30 0 empty empty empty 17 7 0 10 -262144 -1 -1 0
1;
#X obj 173 541 *~;
#X obj 212 541 *~;
#X obj 255 541 *~;
#X obj 205 625 dac~;
#X obj 910 235 s num_scenes;
#X obj 173 425 Trigger_Router;
#X obj 268 171 loadbang;
#X obj 219 224 vsl 30 128 0 3 0 0 empty empty empty 0 -9 0 10 -262144
-1 -1 2117 1;
#X text 260 245 Ratio: Statfeed \; exponent to num \; elements. Lower
\; = more random.;
#X obj 392 255 vsl 30 128 0 1 0 0 empty empty empty 0 -9 0 10 -262144
-1 -1 4229 1;
#X text 433 255 Normalizing volume \; based on mean RMS \; for clip
being played. \; For 4 players \, max should \; be 0.25 and probably
\; lower.;
#X obj 173 386 Statfeed_Chooser;
#X obj 1027 235 s soundfilename;
#X obj 1000 90 bng 30 250 50 0 empty empty empty 17 7 0 10 -262144
-1 -1;
#X obj 1027 207 s textfilename;
#X msg 220 732 file /home/joshua/Desktop/Github_Repos/Quiet_Takes/The_Silence_Quiet_Takes_2.mp4
;
#N canvas 57 89 450 300 savepanel 0;
#X obj 114 62 inlet;
#X obj 114 254 outlet;
#X obj 114 199 t b a;
#X obj 114 125 savepanel;
#X msg 114 162 set file \$1;
#X connect 0 0 3 0;
#X connect 2 0 1 0;
#X connect 2 1 1 0;
#X connect 3 0 4 0;
#X connect 4 0 2 0;
#X restore 120 677 pd savepanel;
#X msg 120 706 record \$1;
#X msg 120 793 codeclist;
#X msg 482 532 start;
#X msg 501 504 stop;
#X obj 482 475 sel 1 0;
#X obj 120 822 s pixrecord;
#X obj 120 636 bng 30 250 50 0 empty empty empty 17 7 0 10 -262144
-1 -1;
#X msg 782 150 \; pd dsp \$1;
#X obj 321 454 vsl 30 128 0 1 0 0 empty empty empty 0 -9 0 10 -262144
-1 -1 6350 1;
#X obj 321 394 loadbang;
#X msg 120 764 codec 32;
#X msg 321 423 0.5;
#X obj 69 636 tgl 30 0 empty empty empty 17 7 0 10 -262144 -1 -1 0
1;
#X obj 47 746 loadbang;
#X obj 1000 131 t b b;
#X obj 743 121 t b f f;
#X obj 254 585 *~;
#X obj 211 585 *~;
#X obj 173 585 *~;
#X obj 482 434 tgl 30 0 empty empty empty 17 7 0 10 -262144 -1 -1 0
1;
#X obj 501 602 writesf~ 3;
#X obj 1026 293 s video_name_add;
#X obj 1111 559 vsl 20 120 0 1 0 0 empty empty empty 0 -9 0 10 -262144
-1 -1 0 1;
#X obj 1142 559 vsl 20 120 0 1 0 0 empty empty empty 0 -9 0 10 -262144
-1 -1 0 1;
#X obj 1173 559 vsl 20 120 0 1 0 0 empty empty empty 0 -9 0 10 -262144
-1 -1 0 1;
#X obj 1111 456 r volume_0;
#X obj 1142 485 r volume_1;
#X obj 1173 514 r volume_2;
#X obj 1111 693 tgl 20 0 empty empty empty 17 7 0 10 -262144 -1 -1
1 1;
#X obj 1142 693 tgl 20 0 empty empty empty 17 7 0 10 -262144 -1 -1
1 1;
#X obj 1173 693 tgl 20 0 empty empty empty 17 7 0 10 -262144 -1 -1
1 1;
#X obj 1206 675 r ready_0;
#X obj 1275 675 r ready_1;
#X obj 1344 675 r ready_2;
#X msg 99 142 0;
#X msg 136 142 1;
#X msg 173 142 2;
#X obj 543 434 bng 30 250 50 0 empty empty empty 17 7 0 10 -262144
-1 -1;
#X text 360 493 Overall volume \; scaler.;
#X obj 66 103 Retrigger_Techniques;
#X obj 463 17 ctlin;
#X floatatom 476 42 5 0 0 0 - - -, f 5;
#X obj 476 124 sel 69 70 71;
#X obj 754 554 vradio 30 1 0 3 empty empty empty 0 -8 0 10 -262144
-1 -1 0;
#X text 787 559 Controller;
#X text 788 590 Sequence;
#X text 787 621 Free-For-All;
#X msg 392 189 0.333;
#X msg 219 189 0.5;
#X obj 379 649 nbx 5 30 -1e+37 1e+37 0 0 empty empty empty 0 -8 0 25
-262144 -1 -1 0 256;
#X obj 580 132 f;
#X obj 613 132 + 1;
#X obj 580 100 bng 15 250 50 0 empty empty empty 17 7 0 10 -262144
-1 -1;
#X obj 610 44 loadbang;
#X msg 610 73 0;
#X obj 580 175 nbx 5 30 -1e+37 1e+37 0 0 empty empty empty 0 -8 0 25
-262144 -1 -1 0 256;
#X obj 461 70 f;
#X obj 399 35 sel 127;
#X msg 543 568 open soundtrack_\$1.wav;
#X obj 586 462 r soundfilename;
#X msg 543 539 The_Silence.wav;
#X msg 543 510 set \$1;
#X msg 1027 179 symbol Persona.wav;
#X msg 1026 264 add2 Persona.mp4;
#X connect 1 0 2 0;
#X connect 3 0 2 0;
#X connect 4 0 2 0;
#X connect 6 0 5 0;
#X connect 7 0 13 0;
#X connect 7 1 14 0;
#X connect 7 2 15 0;
#X connect 8 0 9 0;
#X connect 9 0 17 0;
#X connect 10 0 8 0;
#X connect 11 0 3 0;
#X connect 11 1 1 0;
#X connect 12 0 45 0;
#X connect 13 0 48 0;
#X connect 14 0 47 0;
#X connect 15 0 46 0;
#X connect 18 0 7 0;
#X connect 18 1 13 1;
#X connect 18 2 7 1;
#X connect 18 3 14 1;
#X connect 18 4 7 2;
#X connect 18 5 15 1;
#X connect 19 0 78 0;
#X connect 19 0 77 0;
#X connect 20 0 24 1;
#X connect 22 0 24 2;
#X connect 24 0 18 0;
#X connect 24 1 79 0;
#X connect 26 0 44 0;
#X connect 28 0 35 0;
#X connect 29 0 28 0;
#X connect 30 0 35 0;
#X connect 31 0 35 0;
#X connect 32 0 50 0;
#X connect 33 0 50 0;
#X connect 34 0 32 0;
#X connect 34 1 33 0;
#X connect 36 0 29 0;
#X connect 38 0 46 1;
#X connect 38 0 47 1;
#X connect 38 0 48 1;
#X connect 39 0 41 0;
#X connect 40 0 35 0;
#X connect 41 0 38 0;
#X connect 42 0 30 0;
#X connect 43 0 40 0;
#X connect 44 0 10 0;
#X connect 44 1 92 0;
#X connect 44 1 93 0;
#X connect 45 0 6 0;
#X connect 45 1 11 0;
#X connect 45 2 37 0;
#X connect 46 0 16 0;
#X connect 46 0 16 1;
#X connect 46 0 50 2;
#X connect 47 0 16 0;
#X connect 47 0 16 1;
#X connect 47 0 50 1;
#X connect 48 0 16 0;
#X connect 48 0 16 1;
#X connect 48 0 50 0;
#X connect 49 0 34 0;
#X connect 49 0 42 0;
#X connect 55 0 52 0;
#X connect 56 0 53 0;
#X connect 57 0 54 0;
#X connect 61 0 58 0;
#X connect 62 0 59 0;
#X connect 63 0 60 0;
#X connect 64 0 24 0;
#X connect 65 0 24 0;
#X connect 66 0 24 0;
#X connect 67 0 90 0;
#X connect 69 0 24 0;
#X connect 70 0 87 0;
#X connect 70 1 71 0;
#X connect 71 0 86 1;
#X connect 72 0 64 0;
#X connect 72 1 65 0;
#X connect 72 2 66 0;
#X connect 73 0 69 0;
#X connect 77 0 22 0;
#X connect 78 0 20 0;
#X connect 80 0 81 0;
#X connect 80 0 85 0;
#X connect 81 0 80 1;
#X connect 82 0 80 0;
#X connect 83 0 84 0;
#X connect 84 0 80 1;
#X connect 86 0 72 0;
#X connect 86 0 82 0;
#X connect 87 0 86 0;
#X connect 88 0 50 0;
#X connect 89 0 91 0;
#X connect 90 0 88 0;
#X connect 91 0 90 0;
#X connect 92 0 27 0;
#X connect 92 0 25 0;
#X connect 93 0 51 0;
#X coords 0 -1 1 1 450 170 2 750 550;
