#N canvas 254 146 1666 861 10;
#X msg 50 142 0 \, destroy;
#X obj 10 16 Gem;
#X obj 50 198 gemwin;
#X msg 50 114 create \, 1;
#X obj 168 607 rectangle 6 4;
#X obj 168 580 pix_texture;
#X obj 126 517 pix_mix 0;
#X obj 234 517 pix_mix 0;
#X obj 168 552 pix_mix 0;
#X msg 574 245 set \$1;
#X floatatom 564 298 5 0 0 0 - - -, f 5;
#X obj 564 220 t b f;
#X obj 14 257 bng 15 250 50 0 empty empty empty 17 7 0 10 -262144 -1
-1;
#X obj 40 261 s getnew;
#X obj 612 295 textfiler;
#X obj 97 261 throw~ todac;
#X obj 248 540 loadbang;
#X obj 857 272 catch~ todac;
#X floatatom 236 257 5 0 0 0 - - -, f 5;
#X obj 564 136 statfeed;
#X floatatom 590 86 5 0 0 0 - - -, f 5;
#X floatatom 617 111 5 0 0 0 - - -, f 5;
#X obj 473 10 loadbang;
#X msg 564 47 sequence;
#X obj 473 30 t b b b;
#X floatatom 564 194 5 0 0 0 - - -, f 5;
#X obj 348 131 random 1000;
#X obj 348 159 / 1000;
#X obj 185 142 r getnew;
#X msg 50 171 dimen 960 720;
#X msg 519 69 100;
#X msg 496 94 130;
#X obj 1406 550 s soundfilename;
#X obj 1406 440 loadbang;
#X obj 1406 468 bng 15 250 50 0 empty empty empty 17 7 0 10 -262144
-1 -1;
#X obj 1406 522 s textfilename;
#X obj 31 619 pix_record;
#X obj 1430 207 t a;
#X msg 1337 84 file /home/joshua/Desktop/Github_Repos/Silencer/film1.mp4
;
#N canvas 43 81 450 300 savepanel 0;
#X obj 114 62 inlet;
#X obj 114 254 outlet;
#X obj 114 199 t b a;
#X obj 114 125 savepanel;
#X msg 114 162 set file \$1;
#X connect 0 0 3 0;
#X connect 2 0 1 0;
#X connect 2 1 1 0;
#X connect 3 0 4 0;
#X connect 4 0 2 0;
#X restore 1337 56 pd savepanel;
#X msg 790 50 record \$1;
#X obj 735 24 tgl 15 0 empty empty empty 0 -6 0 8 -262144 -1 -1 1 1
;
#X obj 1337 125 t a;
#X floatatom 71 559 5 0 0 0 - - -, f 5;
#X msg 1438 176 codeclist;
#X msg 1430 151 codec 20;
#X obj 186 441 pack;
#X obj 186 421 t b f;
#X obj 294 439 pack;
#X obj 294 419 t b f;
#X msg 248 560 0.5 0.5;
#X obj 236 282 * 0.666;
#X obj 956 346 writesf~;
#X msg 956 317 start;
#X msg 975 288 stop;
#X obj 956 259 sel 1 0;
#X msg 1050 301 open soundtrack.wav;
#X obj 564 612 s startpoint-0;
#X obj 604 592 s endpoint-0;
#X obj 126 461 VidPlayer 0;
#X obj 564 431 route 0 1 2;
#X obj 588 552 s startpoint-1;
#X obj 628 532 s endpoint-1;
#X obj 26 501 r pixrecord;
#X obj 1430 235 s pixrecord;
#X obj 14 307 bng 15 250 50 0 empty empty empty 17 7 0 10 -262144 -1
-1;
#X obj 40 311 s getnew;
#X obj 97 311 throw~ todac;
#X floatatom 236 307 5 0 0 0 - - -, f 5;
#X obj 14 357 bng 15 250 50 0 empty empty empty 17 7 0 10 -262144 -1
-1;
#X obj 40 361 s getnew;
#X obj 97 361 throw~ todac;
#X floatatom 236 357 5 0 0 0 - - -, f 5;
#X obj 236 382 * 0.666;
#X obj 236 332 * 0.333;
#X obj 206 483 VidPlayer 1;
#X obj 234 459 VidPlayer 2;
#N canvas 913 89 450 436 starter 0;
#X msg 188 136 0;
#X msg 168 210 1;
#X msg 148 280 2;
#X obj 148 80 t b b b b;
#X msg 208 108 1;
#X obj 168 190 del 500;
#X obj 148 260 del 800;
#X obj 208 260 s autoplay;
#X obj 148 22 inlet;
#X obj 148 328 outlet;
#X text 238 108 Start playing films;
#X text 215 137 Get startpoint for 0;
#X text 176 281 Get startpoint for 2 after delay;
#X text 196 211 Get startpoint for 1 after delay;
#X connect 0 0 9 0;
#X connect 1 0 9 0;
#X connect 2 0 9 0;
#X connect 3 0 6 0;
#X connect 3 1 5 0;
#X connect 3 2 0 0;
#X connect 3 3 4 0;
#X connect 4 0 7 0;
#X connect 5 0 1 0;
#X connect 6 0 2 0;
#X connect 8 0 3 0;
#X restore 165 114 pd starter;
#X obj 1050 28 bng 15 250 50 0 empty empty empty 17 7 0 10 -262144
-1 -1;
#X obj 1337 34 bng 15 250 50 0 empty empty empty 17 7 0 10 -262144
-1 -1;
#X obj 613 492 s startpoint-2;
#X obj 653 472 s endpoint-2;
#X obj 856 371 dac~;
#X obj 735 50 sel 1;
#X obj 1459 118 tgl 15 0 empty empty empty 17 7 0 10 -262144 -1 -1
1 1;
#X msg 1459 263 \; pd dsp \$1;
#X obj 105 68 t b b;
#X floatatom 672 333 5 0 0 0 - - -, f 5;
#X obj 165 201 t b f;
#X text 710 336 Avg RMS;
#X text 470 153 Statfeed object can't go over 100 elements;
#X obj 919 460 vsl 15 128 0 1 0 0 empty empty empty 0 -9 0 10 -262144
-1 -1 12700 1;
#X obj 857 327 *~;
#X obj 942 411 loadbang;
#X msg 942 440 1;
#X obj 564 393 pack f f f f;
#X obj 613 452 unpack f f f;
#X obj 588 512 unpack f f f;
#X obj 564 572 unpack f f f;
#X obj 719 492 s volume-0;
#X obj 694 552 s volume-1;
#X obj 669 612 s volume-1;
#X obj 40 290 FilmSoundPlayer 1;
#X obj 426 300 vsl 15 128 0 1 0 0 empty empty empty 0 -9 0 10 -262144
-1 -1 10160 1;
#X obj 364 274 loadbang;
#X msg 364 306 0.8;
#X obj 724 294 t b f;
#X msg 1406 494 symbol The_Silence;
#X text 1481 116 Turn on DSP \, Select codec 20 (mp4);
#X obj 672 368 expr ($f2/ ($f1 + 0.001));
#X obj 40 240 FilmSoundPlayer 0;
#X obj 40 340 FilmSoundPlayer 2;
#X connect 0 0 2 0;
#X connect 3 0 2 0;
#X connect 4 0 36 0;
#X connect 5 0 4 0;
#X connect 6 0 8 0;
#X connect 7 0 8 1;
#X connect 8 0 5 0;
#X connect 9 0 10 0;
#X connect 10 0 95 0;
#X connect 11 0 10 0;
#X connect 11 1 14 0;
#X connect 14 0 95 1;
#X connect 14 1 95 2;
#X connect 14 2 87 0;
#X connect 16 0 50 0;
#X connect 17 0 92 0;
#X connect 18 0 51 0;
#X connect 19 0 25 0;
#X connect 20 0 19 1;
#X connect 21 0 19 2;
#X connect 22 0 24 0;
#X connect 23 0 19 0;
#X connect 24 0 23 0;
#X connect 24 1 31 0;
#X connect 24 2 30 0;
#X connect 25 0 11 0;
#X connect 26 0 27 0;
#X connect 27 0 19 0;
#X connect 28 0 88 0;
#X connect 29 0 2 0;
#X connect 30 0 20 0;
#X connect 31 0 21 0;
#X connect 33 0 34 0;
#X connect 34 0 107 0;
#X connect 36 1 43 0;
#X connect 37 0 64 0;
#X connect 38 0 42 0;
#X connect 39 0 38 0;
#X connect 41 0 83 0;
#X connect 41 0 40 0;
#X connect 42 0 64 0;
#X connect 44 0 37 0;
#X connect 45 0 37 0;
#X connect 46 0 6 2;
#X connect 47 0 46 0;
#X connect 47 1 46 1;
#X connect 48 0 7 2;
#X connect 49 0 48 0;
#X connect 49 1 48 1;
#X connect 50 0 8 2;
#X connect 51 0 48 0;
#X connect 53 0 52 0;
#X connect 54 0 52 0;
#X connect 55 0 53 0;
#X connect 55 1 54 0;
#X connect 56 0 52 0;
#X connect 59 0 6 0;
#X connect 60 0 98 0;
#X connect 60 1 97 0;
#X connect 60 2 96 0;
#X connect 63 0 36 0;
#X connect 68 0 74 0;
#X connect 72 0 73 0;
#X connect 73 0 46 0;
#X connect 74 0 47 0;
#X connect 74 0 49 0;
#X connect 75 0 6 1;
#X connect 75 0 7 1;
#X connect 76 0 7 0;
#X connect 77 0 88 0;
#X connect 78 0 56 0;
#X connect 79 0 39 0;
#X connect 83 0 86 0;
#X connect 84 0 45 0;
#X connect 84 0 85 0;
#X connect 86 0 77 0;
#X connect 86 1 3 0;
#X connect 87 0 109 0;
#X connect 88 0 26 0;
#X connect 88 1 9 0;
#X connect 91 0 92 1;
#X connect 92 0 52 0;
#X connect 92 0 82 0;
#X connect 92 0 82 1;
#X connect 93 0 94 0;
#X connect 94 0 91 0;
#X connect 95 0 60 0;
#X connect 96 0 80 0;
#X connect 96 1 81 0;
#X connect 96 2 99 0;
#X connect 97 0 61 0;
#X connect 97 1 62 0;
#X connect 97 2 100 0;
#X connect 98 0 57 0;
#X connect 98 1 58 0;
#X connect 98 2 101 0;
#X connect 102 0 66 0;
#X connect 102 0 65 0;
#X connect 102 1 67 0;
#X connect 102 2 68 0;
#X connect 103 0 106 0;
#X connect 103 0 95 3;
#X connect 104 0 105 0;
#X connect 105 0 103 0;
#X connect 106 0 87 0;
#X connect 106 1 109 1;
#X connect 107 0 35 0;
#X connect 107 0 32 0;
#X connect 110 0 13 0;
#X connect 110 0 12 0;
#X connect 110 1 15 0;
#X connect 110 2 18 0;
#X connect 111 0 70 0;
#X connect 111 0 69 0;
#X connect 111 1 71 0;
#X connect 111 2 72 0;
