#N canvas 140 119 1353 870 10;
#X obj 305 27 r ready_0;
#X obj 375 27 r ready_1;
#X obj 445 27 r ready_2;
#X obj 317 174 f;
#X obj 305 95 sel 1;
#X msg 305 124 1;
#X obj 238 156 t b b b;
#X obj 387 174 f;
#X obj 375 95 sel 1;
#X obj 457 174 f;
#X obj 445 95 sel 1;
#X obj 372 213 +;
#X obj 442 213 +;
#X obj 502 513 f;
#X obj 309 347 random 2;
#X obj 309 376 sel 0 1;
#X msg 309 405 1;
#X obj 372 347 random 2;
#X obj 372 376 sel 0 1;
#X msg 391 405 3;
#X msg 532 405 3;
#X msg 515 406 2;
#X obj 498 347 random 3;
#X obj 498 376 sel 0 1 2;
#X msg 498 406 1;
#X obj 305 61 t b f;
#X obj 375 61 t b f;
#X obj 445 61 t b f;
#X obj 62 117 r volume_0;
#X obj 113 156 r volume_1;
#X obj 163 195 r volume_2;
#X obj 62 250 <;
#X text 291 531 If a nonzero number \; came out...;
#X obj 62 279 change;
#X obj 62 338 sel 1;
#X obj 201 421 metro 100;
#X obj 201 385 tgl 15 0 empty empty empty 17 7 0 10 -262144 -1 -1 0
1;
#X msg 62 367 1;
#X msg 425 560 0;
#X obj 113 250 <;
#X obj 113 279 change;
#X obj 113 338 sel 1;
#X msg 113 367 1;
#X obj 163 250 <;
#X obj 163 279 change;
#X obj 163 338 sel 1;
#X msg 163 367 1;
#X obj 243 203 loadbang;
#X msg 243 261 set 1;
#X obj 502 678 outlet;
#X obj 201 455 bng 15 250 50 0 empty empty empty 17 7 0 10 -262144
-1 -1;
#X floatatom 120 314 5 0 0 0 - - -, f 5;
#X floatatom 545 231 5 0 0 0 - - -, f 5;
#X floatatom 502 541 5 0 0 0 - - -, f 5;
#X obj 425 531 sel 1 2 3;
#X floatatom 177 311 5 0 0 0 - - -, f 5;
#X floatatom 76 312 5 0 0 0 - - -, f 5;
#X obj 238 99 bng 15 250 50 0 empty empty empty 17 7 0 10 -262144 -1
-1;
#X obj 502 569 - 1;
#X msg 375 124 3;
#X msg 445 124 5;
#X obj 442 242 route 4 6 8 9;
#X obj 435 347 random 2;
#X obj 435 376 sel 0 1;
#X msg 454 405 3;
#X msg 435 405 2;
#X msg 372 405 1;
#X msg 243 232 0.8;
#X msg 328 405 2;
#X obj 633 102 r ready_0;
#X obj 703 102 r ready_1;
#X obj 773 102 r ready_2;
#X obj 633 145 sel 1;
#X obj 703 145 sel 1;
#X obj 773 145 sel 1;
#X msg 633 175 0;
#X msg 703 174 1;
#X msg 773 174 2;
#X obj 633 618 spigot;
#X obj 502 618 spigot;
#X obj 876 418 unpack;
#X msg 943 289 0 0;
#X msg 960 260 1 0;
#X msg 977 231 0 1;
#X obj 943 131 inlet;
#X obj 943 202 sel 0 1 2;
#X connect 0 0 25 0;
#X connect 1 0 26 0;
#X connect 2 0 27 0;
#X connect 3 0 11 0;
#X connect 4 0 5 0;
#X connect 4 1 3 1;
#X connect 5 0 3 1;
#X connect 6 0 3 0;
#X connect 6 1 7 0;
#X connect 6 2 9 0;
#X connect 7 0 11 1;
#X connect 8 0 59 0;
#X connect 8 1 7 1;
#X connect 9 0 12 1;
#X connect 10 0 60 0;
#X connect 10 1 9 1;
#X connect 11 0 12 0;
#X connect 12 0 52 0;
#X connect 12 0 61 0;
#X connect 13 0 53 0;
#X connect 13 0 54 0;
#X connect 14 0 15 0;
#X connect 15 0 16 0;
#X connect 15 1 68 0;
#X connect 16 0 13 1;
#X connect 17 0 18 0;
#X connect 18 0 66 0;
#X connect 18 1 19 0;
#X connect 19 0 13 1;
#X connect 20 0 13 1;
#X connect 21 0 13 1;
#X connect 22 0 23 0;
#X connect 23 0 24 0;
#X connect 23 1 21 0;
#X connect 23 2 20 0;
#X connect 24 0 13 1;
#X connect 25 0 6 0;
#X connect 25 1 4 0;
#X connect 26 0 6 0;
#X connect 26 1 8 0;
#X connect 27 0 6 0;
#X connect 27 1 10 0;
#X connect 28 0 31 0;
#X connect 29 0 39 0;
#X connect 30 0 43 0;
#X connect 31 0 33 0;
#X connect 33 0 34 0;
#X connect 33 0 56 0;
#X connect 34 0 37 0;
#X connect 35 0 13 0;
#X connect 35 0 50 0;
#X connect 36 0 35 0;
#X connect 37 0 36 0;
#X connect 38 0 36 0;
#X connect 39 0 40 0;
#X connect 40 0 41 0;
#X connect 40 0 51 0;
#X connect 41 0 42 0;
#X connect 42 0 36 0;
#X connect 43 0 44 0;
#X connect 44 0 45 0;
#X connect 44 0 55 0;
#X connect 45 0 46 0;
#X connect 46 0 36 0;
#X connect 47 0 48 0;
#X connect 47 0 67 0;
#X connect 48 0 33 0;
#X connect 48 0 40 0;
#X connect 48 0 44 0;
#X connect 53 0 58 0;
#X connect 54 0 38 0;
#X connect 54 1 38 0;
#X connect 54 2 38 0;
#X connect 57 0 6 0;
#X connect 58 0 79 0;
#X connect 59 0 7 1;
#X connect 60 0 9 1;
#X connect 61 0 14 0;
#X connect 61 1 17 0;
#X connect 61 2 62 0;
#X connect 61 3 22 0;
#X connect 61 4 13 1;
#X connect 62 0 63 0;
#X connect 63 0 65 0;
#X connect 63 1 64 0;
#X connect 64 0 13 1;
#X connect 65 0 13 1;
#X connect 66 0 13 1;
#X connect 67 0 43 1;
#X connect 67 0 39 1;
#X connect 67 0 31 1;
#X connect 68 0 13 1;
#X connect 69 0 72 0;
#X connect 70 0 73 0;
#X connect 71 0 74 0;
#X connect 72 0 75 0;
#X connect 73 0 76 0;
#X connect 74 0 77 0;
#X connect 75 0 78 0;
#X connect 76 0 78 0;
#X connect 77 0 78 0;
#X connect 78 0 49 0;
#X connect 79 0 49 0;
#X connect 80 0 79 1;
#X connect 80 1 78 1;
#X connect 81 0 80 0;
#X connect 82 0 80 0;
#X connect 83 0 80 0;
#X connect 84 0 85 0;
#X connect 85 0 81 0;
#X connect 85 1 82 0;
#X connect 85 2 83 0;
