#N canvas 320 295 883 402 10;
#X obj 216 151 ClipPlayer;
#X obj 336 151 ClipPlayer;
#X obj 456 151 ClipPlayer;
#X obj 219 72 bng 15 250 50 0 empty empty empty 17 7 0 10 -262144 -1
-1;
#X obj 332 80 bng 15 250 50 0 empty empty empty 17 7 0 10 -262144 -1
-1;
#X obj 458 78 bng 15 250 50 0 empty empty empty 17 7 0 10 -262144 -1
-1;
#X obj 329 285 dac~;
#X obj 362 99 bng 15 250 50 0 empty empty empty 17 7 0 10 -262144 -1
-1;
#X obj 236 107 bng 15 250 50 0 empty empty empty 17 7 0 10 -262144
-1 -1;
#X obj 475 105 bng 15 250 50 0 empty empty empty 17 7 0 10 -262144
-1 -1;
#X obj 499 124 tgl 15 0 empty empty empty 17 7 0 10 -262144 -1 -1 0
1;
#X obj 371 126 tgl 15 0 empty empty empty 17 7 0 10 -262144 -1 -1 0
1;
#X obj 269 126 tgl 15 0 empty empty empty 17 7 0 10 -262144 -1 -1 0
1;
#X connect 0 0 6 0;
#X connect 0 0 6 1;
#X connect 1 0 6 0;
#X connect 1 0 6 1;
#X connect 2 0 6 0;
#X connect 2 0 6 1;
#X connect 3 0 0 0;
#X connect 4 0 1 0;
#X connect 5 0 2 0;
#X connect 7 0 1 1;
#X connect 8 0 0 1;
#X connect 9 0 2 1;
#X connect 10 0 2 2;
#X connect 11 0 1 2;
#X connect 12 0 0 2;
