#N canvas 308 311 883 402 10;
#X obj 456 151 ClipPlayer;
#X obj 216 68 bng 15 250 50 0 empty empty empty 17 7 0 10 -262144 -1
-1;
#X obj 336 68 bng 15 250 50 0 empty empty empty 17 7 0 10 -262144 -1
-1;
#X obj 456 68 bng 15 250 50 0 empty empty empty 17 7 0 10 -262144 -1
-1;
#X obj 678 199 dac~;
#X obj 352 99 bng 15 250 50 0 empty empty empty 17 7 0 10 -262144 -1
-1;
#X obj 232 99 bng 15 250 50 0 empty empty empty 17 7 0 10 -262144 -1
-1;
#X obj 472 99 bng 15 250 50 0 empty empty empty 17 7 0 10 -262144 -1
-1;
#X obj 489 125 tgl 15 0 empty empty empty 17 7 0 10 -262144 -1 -1 1
1;
#X obj 369 125 tgl 15 0 empty empty empty 17 7 0 10 -262144 -1 -1 1
1;
#X obj 249 125 tgl 15 0 empty empty empty 17 7 0 10 -262144 -1 -1 1
1;
#X obj 141 84 bng 15 250 50 0 empty empty empty 17 7 0 10 -262144 -1
-1;
#X obj 141 110 tgl 15 0 empty empty empty 17 7 0 10 -262144 -1 -1 1
1;
#X obj 217 219 *~;
#X obj 252 182 vsl 15 60 0 1 0 0 empty empty empty 0 -9 0 10 -262144
-1 -1 4130 1;
#X obj 337 219 *~;
#X obj 372 182 vsl 15 60 0 1 0 0 empty empty empty 0 -9 0 10 -262144
-1 -1 4130 1;
#X obj 457 219 *~;
#X obj 492 182 vsl 15 60 0 1 0 0 empty empty empty 0 -9 0 10 -262144
-1 -1 4130 1;
#X obj 46 125 loadbang;
#X obj 677 162 catch~ todac;
#X obj 566 68 bng 15 250 50 0 empty empty empty 17 7 0 10 -262144 -1
-1;
#X obj 582 99 bng 15 250 50 0 empty empty empty 17 7 0 10 -262144 -1
-1;
#X obj 599 125 tgl 15 0 empty empty empty 17 7 0 10 -262144 -1 -1 1
1;
#X obj 567 219 *~;
#X obj 602 182 vsl 15 60 0 1 0 0 empty empty empty 0 -9 0 10 -262144
-1 -1 4130 1;
#X obj 217 247 throw~ todac;
#X obj 337 247 throw~ todac;
#X obj 457 247 throw~ todac;
#X obj 567 247 throw~ todac;
#X floatatom 133 137 5 0 0 0 - - -, f 5;
#X floatatom 289 30 5 0 0 0 - - -, f 5;
#X msg 90 150 29;
#X obj 216 151 ClipPlayer;
#X obj 336 151 ClipPlayer;
#X obj 566 151 ClipPlayer;
#X msg 46 163 0.7;
#X connect 0 0 17 0;
#X connect 1 0 33 0;
#X connect 2 0 34 0;
#X connect 3 0 0 0;
#X connect 5 0 34 1;
#X connect 6 0 33 1;
#X connect 7 0 0 1;
#X connect 8 0 0 2;
#X connect 9 0 34 2;
#X connect 10 0 33 2;
#X connect 11 0 6 0;
#X connect 11 0 5 0;
#X connect 11 0 7 0;
#X connect 11 0 22 0;
#X connect 12 0 10 0;
#X connect 12 0 9 0;
#X connect 12 0 8 0;
#X connect 12 0 23 0;
#X connect 13 0 26 0;
#X connect 14 0 13 1;
#X connect 15 0 27 0;
#X connect 16 0 15 1;
#X connect 17 0 28 0;
#X connect 18 0 17 1;
#X connect 19 0 36 0;
#X connect 19 0 32 0;
#X connect 20 0 4 0;
#X connect 20 0 4 1;
#X connect 21 0 35 0;
#X connect 22 0 35 1;
#X connect 23 0 35 2;
#X connect 24 0 29 0;
#X connect 25 0 24 1;
#X connect 30 0 0 4;
#X connect 30 0 33 4;
#X connect 30 0 34 4;
#X connect 30 0 35 4;
#X connect 31 0 0 3;
#X connect 31 0 33 3;
#X connect 31 0 34 3;
#X connect 31 0 35 3;
#X connect 32 0 30 0;
#X connect 33 0 13 0;
#X connect 34 0 15 0;
#X connect 35 0 24 0;
#X connect 36 0 14 0;
#X connect 36 0 16 0;
#X connect 36 0 18 0;
#X connect 36 0 25 0;
