#N canvas 57 89 838 560 10;
#X obj 202 126 statfeed;
#X floatatom 223 51 5 0 0 0 - - -, f 5;
#X floatatom 286 55 5 0 0 0 - - -, f 5;
#X floatatom 260 255 5 0 0 0 - - -, f 5;
#X floatatom 174 213 5 0 0 0 - - -, f 5;
#X msg 151 93 0.5;
#X connect 0 0 4 0;
#X connect 0 1 3 0;
#X connect 1 0 0 1;
#X connect 2 0 0 2;
#X connect 5 0 0 0;
