#N canvas 57 89 820 642 10;
#X obj 297 351 statfeed;
#X obj 391 89 r num_scenes;
#X obj 391 213 *;
#X obj 391 128 t b f f;
#X floatatom 342 231 5 0 0 0 - - -, f 5;
#X floatatom 319 193 5 0 0 0 - - -, f 5;
#X msg 297 146 sequence;
#X obj 327 437 textfiler;
#X floatatom 297 380 5 0 0 0 - - -, f 5;
#X obj 297 408 t b f;
#X msg 216 435 set \$1;
#X floatatom 297 483 5 0 0 0 - - -, f 5;
#X obj 189 305 random 1000;
#X obj 189 333 / 1000;
#X obj 306 524 pack f f f f;
#X floatatom 378 471 5 0 0 0 - - -, f 5;
#X text 413 472 Avg RMS;
#X obj 429 439 t b f;
#X obj 378 496 expr ($f2/$f1);
#X obj 189 43 inlet;
#X obj 429 386 inlet;
#X obj 406 27 inlet;
#X obj 306 598 outlet;
#X obj 189 215 t b f;
#X obj 592 397 outlet;
#X connect 0 0 8 0;
#X connect 1 0 3 0;
#X connect 2 0 4 0;
#X connect 3 0 2 0;
#X connect 3 0 6 0;
#X connect 3 1 5 0;
#X connect 3 2 2 1;
#X connect 4 0 0 2;
#X connect 5 0 0 1;
#X connect 6 0 0 0;
#X connect 7 0 14 1;
#X connect 7 1 14 2;
#X connect 7 2 15 0;
#X connect 8 0 9 0;
#X connect 8 0 24 0;
#X connect 9 0 11 0;
#X connect 9 1 7 0;
#X connect 10 0 11 0;
#X connect 11 0 14 0;
#X connect 12 0 13 0;
#X connect 13 0 0 0;
#X connect 14 0 22 0;
#X connect 15 0 18 0;
#X connect 17 0 15 0;
#X connect 17 1 18 1;
#X connect 18 0 14 3;
#X connect 19 0 23 0;
#X connect 20 0 17 0;
#X connect 21 0 2 1;
#X connect 23 0 12 0;
#X connect 23 1 10 0;
