#N canvas 280 336 798 389 10;
#X obj 177 254 textfile;
#X msg 247 198 rewind;
#X obj 177 198 until;
#X obj 177 170 t f b;
#X obj 178 277 unpack f f f;
#X obj 177 122 inlet;
#X obj 178 361 outlet;
#X obj 218 333 outlet;
#X obj 324 47 r textfilename;
#X msg 396 133 add2 read;
#X obj 356 105 t b a b b;
#X msg 416 189 set;
#X msg 356 189 add2 cr;
#X obj 324 75 t b a;
#X obj 259 305 outlet;
#X msg 356 237 read Clip1_Labels.txt cr;
#X msg 376 161 add2 \$1.wav_Final_Labels/\$1.wav_Final_Labels.txt;
#X connect 0 0 4 0;
#X connect 1 0 0 0;
#X connect 2 0 0 0;
#X connect 3 0 2 0;
#X connect 3 1 1 0;
#X connect 4 0 6 0;
#X connect 4 1 7 0;
#X connect 4 2 14 0;
#X connect 5 0 3 0;
#X connect 8 0 13 0;
#X connect 9 0 15 0;
#X connect 10 0 12 0;
#X connect 10 1 16 0;
#X connect 10 2 9 0;
#X connect 10 3 11 0;
#X connect 11 0 15 0;
#X connect 12 0 15 0;
#X connect 13 0 15 0;
#X connect 13 1 10 0;
#X connect 15 0 0 0;
#X connect 16 0 15 0;
