#N canvas 43 81 450 300 10;
#X obj 135 150 textfile;
#X msg 147 122 rewind;
#X obj 135 94 until;
#X msg 184 81 read LabelTrack.txt cr;
#X obj 135 66 t f b;
#X obj 136 173 unpack f f f;
#X obj 119 29 inlet;
#X obj 232 42 loadbang;
#X obj 136 239 outlet;
#X obj 192 240 outlet;
#X connect 0 0 5 0;
#X connect 1 0 0 0;
#X connect 2 0 0 0;
#X connect 3 0 0 0;
#X connect 4 0 2 0;
#X connect 4 1 1 0;
#X connect 5 0 8 0;
#X connect 5 1 9 0;
#X connect 6 0 4 0;
#X connect 7 0 3 0;
