#N canvas 326 324 798 389 10;
#X obj 177 254 textfile;
#X msg 247 198 rewind;
#X obj 177 198 until;
#X obj 177 170 t f b;
#X obj 178 277 unpack f f f;
#X obj 177 122 inlet;
#X obj 178 333 outlet;
#X obj 218 305 outlet;
#X obj 97 198 inlet;
#X obj 338 47 r textfilename;
#X msg 370 237 read BergmanSilence_Labels.txt cr;
#X msg 410 133 add2 read;
#X obj 370 105 t b a b b;
#X msg 430 189 set;
#X msg 370 189 add2 cr;
#X msg 390 161 add2 \$1_Labels.txt;
#X obj 338 75 t b a;
#X obj 378 302 print 1:;
#X connect 0 0 4 0;
#X connect 1 0 0 0;
#X connect 2 0 0 0;
#X connect 3 0 2 0;
#X connect 3 1 1 0;
#X connect 4 0 6 0;
#X connect 4 1 7 0;
#X connect 5 0 3 0;
#X connect 8 0 0 0;
#X connect 9 0 16 0;
#X connect 10 0 0 0;
#X connect 10 0 17 0;
#X connect 11 0 10 0;
#X connect 12 0 14 0;
#X connect 12 1 15 0;
#X connect 12 2 11 0;
#X connect 12 3 13 0;
#X connect 13 0 10 0;
#X connect 14 0 10 0;
#X connect 15 0 10 0;
#X connect 16 0 10 0;
#X connect 16 1 12 0;
