#N canvas 605 171 450 300 10;
#X obj 135 150 textfile;
#X msg 147 122 rewind;
#X obj 135 94 until;
#X obj 135 66 t f b;
#X obj 136 173 unpack f f f;
#X obj 119 29 inlet;
#X obj 232 42 loadbang;
#X obj 136 239 outlet;
#X obj 192 240 outlet;
#X obj 356 42 inlet;
#X msg 184 81 read BergmanSilence_Labels.txt cr;
#X connect 0 0 4 0;
#X connect 1 0 0 0;
#X connect 2 0 0 0;
#X connect 3 0 2 0;
#X connect 3 1 1 0;
#X connect 4 0 7 0;
#X connect 4 1 8 0;
#X connect 5 0 3 0;
#X connect 6 0 10 0;
#X connect 9 0 0 0;
#X connect 10 0 0 0;
