#N canvas 227 335 798 563 10;
#X obj 177 254 textfile;
#X msg 247 198 rewind;
#X obj 177 198 until;
#X obj 177 170 t f b;
#X obj 177 122 inlet;
#X obj 324 47 r textfilename;
#X msg 396 133 add2 read;
#X obj 356 105 t b a b b;
#X msg 416 189 set;
#X msg 356 189 add2 cr;
#X obj 324 75 t b a;
#X msg 356 237 read Clip1.wav_Final_Labels/Clip1.wav_Final_Labels.txt
cr;
#X msg 376 161 add2 \$1_Final_Labels/\$1_Final_Labels.txt;
#X msg 271 230 0;
#X obj 177 329 f;
#X obj 220 329 + 1;
#X obj 177 293 bng 15 250 50 0 empty empty empty 17 7 0 10 -262144
-1 -1;
#X floatatom 177 407 5 0 0 0 - - -, f 5;
#X obj 177 484 outlet;
#X msg 177 368 set \$1;
#X obj 177 445 + 1;
#X connect 0 0 16 0;
#X connect 0 1 17 0;
#X connect 1 0 0 0;
#X connect 2 0 0 0;
#X connect 3 0 2 0;
#X connect 3 1 1 0;
#X connect 3 1 13 0;
#X connect 4 0 3 0;
#X connect 5 0 10 0;
#X connect 6 0 11 0;
#X connect 7 0 9 0;
#X connect 7 1 12 0;
#X connect 7 2 6 0;
#X connect 7 3 8 0;
#X connect 8 0 11 0;
#X connect 9 0 11 0;
#X connect 10 0 11 0;
#X connect 10 1 7 0;
#X connect 11 0 0 0;
#X connect 12 0 11 0;
#X connect 13 0 14 1;
#X connect 14 0 15 0;
#X connect 14 0 19 0;
#X connect 15 0 14 1;
#X connect 16 0 14 0;
#X connect 17 0 20 0;
#X connect 19 0 17 0;
#X connect 20 0 18 0;
