#N canvas 364 279 771 563 10;
#X obj 265 222 unpack f f f;
#X obj 223 193 route 0 1 2;
#X msg 265 280 1;
#X obj 265 309 pack f f f;
#X obj 265 251 t b f;
#X obj 244 338 unpack f f f;
#X msg 244 396 1;
#X obj 244 425 pack f f f;
#X obj 244 367 t b f;
#X obj 108 211 unpack f f f;
#X msg 108 269 1;
#X obj 108 298 pack f f f;
#X obj 108 240 t b f;
#X obj 223 73 inlet;
#X obj 177 476 outlet;
#X obj 313 487 outlet;
#X obj 384 240 outlet;
#X obj 108 366 outlet;
#X obj 244 517 outlet;
#X obj 359 327 outlet;
#X connect 0 0 4 0;
#X connect 0 1 3 2;
#X connect 0 2 16 0;
#X connect 1 0 9 0;
#X connect 1 1 5 0;
#X connect 1 2 0 0;
#X connect 2 0 3 0;
#X connect 3 0 19 0;
#X connect 4 0 2 0;
#X connect 4 1 3 1;
#X connect 5 0 8 0;
#X connect 5 1 7 2;
#X connect 5 2 15 0;
#X connect 6 0 7 0;
#X connect 7 0 18 0;
#X connect 8 0 6 0;
#X connect 8 1 7 1;
#X connect 9 0 12 0;
#X connect 9 1 11 2;
#X connect 9 2 14 0;
#X connect 10 0 11 0;
#X connect 11 0 17 0;
#X connect 12 0 10 0;
#X connect 12 1 11 1;
#X connect 13 0 1 0;
