#N canvas 512 284 450 300 10;
#X obj 45 126 gemhead;
#X obj 45 100 tgl 15 0 empty empty empty 17 7 0 10 -262144 -1 -1 0
1;
#X obj 134 143 pix_film;
#X msg 134 115 open \$1;
#X obj 134 87 openpanel;
#X obj 134 61 bng 15 250 50 0 empty empty empty 17 7 0 10 -262144 -1
-1;
#X obj 160 165 unpack f f f;
#X floatatom 160 207 5 0 0 0 - - -, f 5;
#X floatatom 200 207 5 0 0 0 - - -, f 5;
#X floatatom 241 207 5 0 0 0 - - -, f 5;
#X floatatom 187 61 5 0 0 0 - - -, f 5;
#X msg 237 126 auto \$1;
#X obj 237 61 tgl 15 0 empty empty empty 17 7 0 10 -262144 -1 -1 0
1;
#X obj 134 249 outlet;
#X obj 134 33 inlet;
#X obj 45 49 loadbang;
#X obj 187 33 inlet;
#X obj 237 33 inlet;
#X connect 0 0 2 0;
#X connect 1 0 0 0;
#X connect 2 0 13 0;
#X connect 2 1 6 0;
#X connect 3 0 2 0;
#X connect 4 0 3 0;
#X connect 5 0 4 0;
#X connect 6 0 7 0;
#X connect 6 1 8 0;
#X connect 6 2 9 0;
#X connect 10 0 2 1;
#X connect 11 0 2 0;
#X connect 12 0 11 0;
#X connect 14 0 5 0;
#X connect 15 0 1 0;
#X connect 16 0 10 0;
#X connect 17 0 12 0;
