#N canvas 83 320 917 709 10;
#X obj 58 245 gemhead;
#X obj 58 219 tgl 15 0 empty empty empty 17 7 0 10 -262144 -1 -1 1
1;
#X obj 147 401 pix_film;
#X msg 147 322 open \$1;
#X obj 147 498 outlet;
#X obj 58 168 loadbang;
#X obj 252 383 line;
#X obj 171 20 inlet;
#X obj 286 20 inlet;
#X obj 267 179 -;
#X obj 258 328 pack f f f;
#X obj 286 65 t f f;
#X obj 171 66 t f f;
#X obj 278 210 abs;
#X obj 81 57 inlet;
#X obj 333 266 f;
#X obj 285 259 f;
#X obj 241 267 f;
#X obj 155 186 t b b b;
#X msg 259 357 \$1 \, \$2 \$3;
#X msg 498 265 symbol Persona.mp4;
#X msg 595 200 add2 symbol;
#X msg 498 304 symbol /home/joshua/Desktop/Github_Repos/Quiet_Takes/\$1
;
#X msg 680 199 set;
#X obj 498 208 bng 15 250 50 0 empty empty empty 17 7 0 10 -262144
-1 -1;
#X obj 561 105 r video_name_add;
#X obj 561 154 t b a b b;
#X floatatom 273 447 5 0 0 0 - - -, f 5;
#X obj 426 490 expr (44100/25);
#X floatatom 414 522 5 0 0 0 - - -, f 5;
#X obj 443 461 bng 15 250 50 0 empty empty empty 17 7 0 10 -262144
-1 -1;
#X floatatom 72 26 5 0 0 0 - - -, f 5;
#X floatatom 227 19 5 0 0 0 - - -, f 5;
#X floatatom 393 359 5 0 0 0 - - -, f 5;
#X obj 378 240 * 1000;
#X obj 201 163 * 24;
#X obj 361 197 * 24;
#X connect 0 0 2 0;
#X connect 1 0 0 0;
#X connect 2 0 4 0;
#X connect 3 0 2 0;
#X connect 5 0 1 0;
#X connect 6 0 2 1;
#X connect 7 0 31 0;
#X connect 7 0 12 0;
#X connect 8 0 32 0;
#X connect 8 0 11 0;
#X connect 9 0 13 0;
#X connect 10 0 19 0;
#X connect 11 0 9 1;
#X connect 11 1 36 0;
#X connect 12 0 35 0;
#X connect 12 1 9 0;
#X connect 13 0 34 0;
#X connect 14 0 18 0;
#X connect 15 0 10 2;
#X connect 15 0 33 0;
#X connect 16 0 10 1;
#X connect 17 0 10 0;
#X connect 18 0 17 0;
#X connect 18 1 16 0;
#X connect 18 2 15 0;
#X connect 19 0 6 0;
#X connect 20 0 22 0;
#X connect 21 0 20 0;
#X connect 22 0 3 0;
#X connect 23 0 20 0;
#X connect 24 0 20 0;
#X connect 25 0 26 0;
#X connect 26 0 24 0;
#X connect 26 1 20 0;
#X connect 26 2 21 0;
#X connect 26 3 23 0;
#X connect 27 0 2 1;
#X connect 28 0 29 0;
#X connect 30 0 28 0;
#X connect 34 0 15 1;
#X connect 35 0 17 1;
#X connect 36 0 16 1;
