#N canvas 67 210 482 488 10;
#X obj 58 245 gemhead;
#X obj 58 219 tgl 15 0 empty empty empty 17 7 0 10 -262144 -1 -1 1
1;
#X obj 147 262 pix_film;
#X msg 147 234 open \$1;
#X obj 173 284 unpack f f f;
#X floatatom 173 326 5 0 0 0 - - -, f 5;
#X floatatom 213 326 5 0 0 0 - - -, f 5;
#X floatatom 254 326 5 0 0 0 - - -, f 5;
#X floatatom 200 200 5 0 0 0 - - -, f 5;
#X msg 250 245 auto \$1;
#X obj 250 180 tgl 15 0 empty empty empty 17 7 0 10 -262144 -1 -1 0
1;
#X obj 147 368 outlet;
#X obj 58 168 loadbang;
#X obj 200 73 unpack f f f;
#X obj 200 158 * 25;
#X text 185 183 frame #;
#X obj 30 22 loadbang;
#X obj 250 152 r autoplay;
#X obj 200 32 r startpoint-\$1;
#X msg 30 101 symbol /home/joshua/Desktop/Github_Repos/Silencer/The_Silence.mp4
;
#X connect 0 0 2 0;
#X connect 1 0 0 0;
#X connect 2 0 11 0;
#X connect 2 1 4 0;
#X connect 3 0 2 0;
#X connect 4 0 5 0;
#X connect 4 1 6 0;
#X connect 4 2 7 0;
#X connect 8 0 2 1;
#X connect 9 0 2 0;
#X connect 10 0 9 0;
#X connect 12 0 1 0;
#X connect 13 0 14 0;
#X connect 14 0 8 0;
#X connect 16 0 19 0;
#X connect 17 0 10 0;
#X connect 18 0 13 0;
#X connect 19 0 3 0;
