#N canvas 57 371 917 709 10;
#X obj 58 245 gemhead;
#X obj 58 219 tgl 15 0 empty empty empty 17 7 0 10 -262144 -1 -1 1
1;
#X obj 147 362 pix_film;
#X msg 147 234 open \$1;
#X obj 147 498 outlet;
#X obj 58 168 loadbang;
#X obj 30 22 loadbang;
#X msg 30 101 symbol /home/joshua/Desktop/Github_Repos/Quiet_Takes/The_Silence.mp4
;
#X obj 252 383 line;
#X obj 171 20 inlet;
#X obj 286 20 inlet;
#X obj 246 187 -;
#X obj 258 298 pack f f f;
#X obj 286 65 t f f;
#X obj 171 66 t f f;
#X obj 257 218 abs;
#X obj 171 43 * 1000;
#X obj 286 42 * 1000;
#X obj 361 197 / 40;
#X obj 208 222 / 40;
#X obj 81 57 inlet;
#X obj 333 266 f;
#X obj 285 259 f;
#X obj 241 267 f;
#X obj 155 186 t b b b;
#X msg 259 327 \$1 \, \$2 \$3;
#X connect 0 0 2 0;
#X connect 1 0 0 0;
#X connect 2 0 4 0;
#X connect 3 0 2 0;
#X connect 5 0 1 0;
#X connect 6 0 7 0;
#X connect 7 0 3 0;
#X connect 8 0 2 1;
#X connect 9 0 16 0;
#X connect 10 0 17 0;
#X connect 11 0 15 0;
#X connect 12 0 25 0;
#X connect 13 0 11 1;
#X connect 13 1 18 0;
#X connect 14 0 19 0;
#X connect 14 1 11 0;
#X connect 15 0 21 1;
#X connect 16 0 14 0;
#X connect 17 0 13 0;
#X connect 18 0 22 1;
#X connect 19 0 23 1;
#X connect 20 0 24 0;
#X connect 21 0 12 2;
#X connect 22 0 12 1;
#X connect 23 0 12 0;
#X connect 24 0 23 0;
#X connect 24 1 22 0;
#X connect 24 2 21 0;
#X connect 25 0 8 0;
