#N canvas 104 191 1742 685 10;
#X obj 290 52 ctlin;
#X floatatom 290 151 5 0 0 0 - - -, f 5;
#X floatatom 303 113 5 0 0 0 - - -, f 5;
#X obj 290 189 pack;
#X msg 290 228 \$2 \$1;
#X obj 350 401 / 127;
#X obj 350 440 s playbackrate-0;
#X obj 375 372 s volume-0;
#X obj 375 333 / 127;
#X obj 400 304 s resetplayback-0;
#X obj 350 246 route 18 2 34;
#X obj 400 275 / 127;
#X obj 29 436 s startpoint-0;
#X obj 29 246 route 0 1;
#X obj 29 397 / 127;
#X obj 54 315 / 127;
#X obj 54 354 s endpoint-0;
#X obj 188 246 route 16 17;
#X obj 219 324 s delaylength-0;
#X obj 188 402 s delayfeedback-0;
#X obj 188 363 / 127;
#X obj 219 285 / 127;
#X obj 543 246 route 32 33;
#X obj 543 363 / 127;
#X obj 574 285 / 127;
#X obj 574 324 s delayonoff-0;
#X obj 692 324 s newsampbutton-0;
#X obj 692 285 / 127;
#X obj 1170 401 / 127;
#X obj 1195 333 / 127;
#X obj 1220 275 / 127;
#X obj 849 397 / 127;
#X obj 874 315 / 127;
#X obj 1008 363 / 127;
#X obj 1039 285 / 127;
#X obj 1363 363 / 127;
#X obj 1394 285 / 127;
#X obj 1512 285 / 127;
#X obj 849 246 route 5 6;
#X obj 1008 246 route 21 22;
#X obj 1170 246 route 23 7 39;
#X obj 1363 246 route 37 38;
#X obj 692 246 route 43;
#X obj 1512 246 route 45;
#X obj 849 436 s startpoint-1;
#X obj 1008 402 s delayfeedback-1;
#X obj 1170 440 s playbackrate-1;
#X obj 543 402 s trigger-0;
#X obj 1195 372 s volume-1;
#X obj 1039 324 s delaylength-1;
#X obj 874 354 s endpoint-1;
#X obj 1220 304 s resetplayback-1;
#X obj 1394 324 s delayonoff-1;
#X obj 1363 402 s trigger-1;
#X obj 1512 324 s newsampbutton-1;
#X connect 0 0 1 0;
#X connect 0 1 2 0;
#X connect 1 0 3 0;
#X connect 2 0 3 1;
#X connect 3 0 4 0;
#X connect 4 0 10 0;
#X connect 4 0 13 0;
#X connect 4 0 17 0;
#X connect 4 0 22 0;
#X connect 4 0 42 0;
#X connect 4 0 38 0;
#X connect 4 0 39 0;
#X connect 4 0 40 0;
#X connect 4 0 41 0;
#X connect 4 0 43 0;
#X connect 5 0 6 0;
#X connect 8 0 7 0;
#X connect 10 0 5 0;
#X connect 10 1 8 0;
#X connect 10 2 11 0;
#X connect 11 0 9 0;
#X connect 13 0 14 0;
#X connect 13 1 15 0;
#X connect 14 0 12 0;
#X connect 15 0 16 0;
#X connect 17 0 20 0;
#X connect 17 1 21 0;
#X connect 20 0 19 0;
#X connect 21 0 18 0;
#X connect 22 0 23 0;
#X connect 22 1 24 0;
#X connect 23 0 47 0;
#X connect 24 0 25 0;
#X connect 27 0 26 0;
#X connect 28 0 46 0;
#X connect 29 0 48 0;
#X connect 30 0 51 0;
#X connect 31 0 44 0;
#X connect 32 0 50 0;
#X connect 33 0 45 0;
#X connect 34 0 49 0;
#X connect 35 0 53 0;
#X connect 36 0 52 0;
#X connect 37 0 54 0;
#X connect 38 0 31 0;
#X connect 38 1 32 0;
#X connect 39 0 33 0;
#X connect 39 1 34 0;
#X connect 40 0 28 0;
#X connect 40 1 29 0;
#X connect 40 2 30 0;
#X connect 41 0 35 0;
#X connect 41 1 36 0;
#X connect 42 0 27 0;
#X connect 43 0 37 0;
