#N canvas 236 157 1570 782 10;
#X obj 694 140 WalidControlPanel;
#X obj 47 122 WalidSampler 0;
#X obj 858 122 WalidSampler 1;
#X obj 714 735 dac~;
#X obj 713 403 *~ 0.5;
#X obj 746 255 tgl 60 0 empty empty empty 17 7 0 10 -1 -1 -1 1 1;
#X obj 746 346 * 0.5;
#X obj 713 691 freeverb~;
#X msg 461 625 \; array-0 normalize \; array-1 normalize;
#X msg 932 673 roomsize \$1;
#X msg 968 673 damping \$1;
#X msg 1004 673 width \$1;
#X msg 1040 673 wet \$1;
#X msg 1076 673 dry \$1;
#X msg 1112 673 freeze \$1;
#X msg 1112 673 bypass \$1;
#X obj 288 424 ctlin;
#X floatatom 288 491 5 0 0 0 - - -, f 5;
#X floatatom 301 463 5 0 0 0 - - -, f 5;
#X obj 756 440 loadbang;
#X msg 746 469 1;
#X obj 381 469 / 127;
#X obj 416 469 / 127;
#X obj 451 469 / 127;
#X obj 486 469 / 127;
#X obj 288 519 pack;
#X msg 343 424 \$2 \$1;
#X obj 521 469 / 127;
#X obj 556 469 / 127;
#X obj 1238 487 * 1;
#X obj 1238 542 sel 1;
#X obj 1183 487 sel 1;
#X obj 431 442 route 19 20 3 4 42 36 58;
#X obj 591 469 / 127;
#X obj 461 550 sel 1;
#X obj 461 589 bng 15 250 50 0 empty empty empty 17 7 0 10 -262144
-1 -1;
#X obj 918 481 cnv 15 250 170 empty empty empty 20 12 0 14 -203904
-66577 0;
#X obj 932 489 vsl 25 150 0 1 0 0 empty empty empty 0 -9 0 10 -1 -262144
-1 10794 1;
#X obj 968 489 vsl 25 150 0 1 0 0 empty empty empty 0 -9 0 10 -1 -262144
-1 5983 1;
#X obj 1004 489 vsl 25 150 0 1 0 0 empty empty empty 0 -9 0 10 -257985
-1 -1 14900 1;
#X obj 1040 489 vsl 25 150 0 1 0 0 empty empty empty 0 -9 0 10 -1 -262144
-1 9972 1;
#X obj 1076 489 vsl 25 150 0 1 0 0 empty empty empty 0 -9 0 10 -1 -262144
-1 9855 1;
#X obj 1112 487 tgl 40 0 empty empty empty 17 7 0 10 -1 -262144 -1
0 1;
#X obj 1112 603 tgl 40 0 empty empty empty 17 7 0 10 -1 -262144 -1
0 1;
#X msg 773 469 0.85;
#X msg 810 469 0.3;
#X msg 837 469 0.7;
#X msg 865 469 0.95;
#X connect 1 0 4 0;
#X connect 2 0 4 0;
#X connect 4 0 7 0;
#X connect 5 0 6 0;
#X connect 6 0 4 1;
#X connect 7 0 3 0;
#X connect 7 0 3 1;
#X connect 9 0 7 0;
#X connect 10 0 7 0;
#X connect 11 0 7 0;
#X connect 12 0 7 0;
#X connect 13 0 7 0;
#X connect 14 0 7 0;
#X connect 16 0 17 0;
#X connect 16 1 18 0;
#X connect 17 0 25 0;
#X connect 18 0 25 1;
#X connect 19 0 20 0;
#X connect 19 0 44 0;
#X connect 19 0 45 0;
#X connect 19 0 46 0;
#X connect 19 0 47 0;
#X connect 20 0 5 0;
#X connect 20 0 39 0;
#X connect 20 0 29 0;
#X connect 21 0 37 0;
#X connect 22 0 38 0;
#X connect 23 0 40 0;
#X connect 24 0 41 0;
#X connect 25 0 26 0;
#X connect 26 0 32 0;
#X connect 27 0 31 0;
#X connect 28 0 29 0;
#X connect 29 0 30 0;
#X connect 30 0 43 0;
#X connect 31 0 42 0;
#X connect 32 0 21 0;
#X connect 32 1 22 0;
#X connect 32 2 23 0;
#X connect 32 3 24 0;
#X connect 32 4 27 0;
#X connect 32 5 28 0;
#X connect 32 6 33 0;
#X connect 33 0 34 0;
#X connect 34 0 35 0;
#X connect 35 0 8 0;
#X connect 37 0 9 0;
#X connect 38 0 10 0;
#X connect 39 0 11 0;
#X connect 40 0 12 0;
#X connect 41 0 13 0;
#X connect 42 0 14 0;
#X connect 43 0 15 0;
#X connect 44 0 37 0;
#X connect 46 0 40 0;
#X connect 47 0 41 0;
